<?xml version="1.0" encoding="utf-8"?><svg viewBox="0 0 417 417" xmlns="http://www.w3.org/2000/svg" xmlns:xlink="http://www.w3.org/1999/xlink"><style>:root>svg{display:none}:root>svg:target{display:block}</style><svg fill="none" viewBox="0 0 123 123" id="about-me--about-bar1" xmlns="http://www.w3.org/2000/svg"><circle cx="61.5" cy="61.5" r="52.5" stroke="#fff" stroke-opacity=".1" stroke-width="18"/><path fill-rule="evenodd" clip-rule="evenodd" d="M105.192 96.05A54.996 54.996 0 00117 62h-5c0 27.614-22.386 50-50 50S12 89.614 12 62s22.386-50 50-50a49.774 49.774 0 0129.391 9.546l2.937-4.042a55 55 0 1010.864 78.546z" fill="#8AAEE6"/></svg><svg fill="none" viewBox="0 0 123 123" id="about-me--about-bar2" xmlns="http://www.w3.org/2000/svg"><circle cx="61.5" cy="61.5" r="52.5" stroke="#fff" stroke-opacity=".1" stroke-width="18"/><path fill-rule="evenodd" clip-rule="evenodd" d="M102.388 99.334A55.003 55.003 0 00117 62h-5c0 27.614-22.386 50-50 50S12 89.614 12 62s22.386-50 50-50c22.22 0 41.056 14.495 47.566 34.545l4.742-1.54a55 55 0 10-11.92 54.33z" fill="#8AAEE6"/></svg><svg fill="none" viewBox="0 0 123 123" id="about-me--about-bar3" xmlns="http://www.w3.org/2000/svg"><circle cx="61.5" cy="61.5" r="52.5" stroke="#fff" stroke-opacity=".1" stroke-width="18"/><path fill-rule="evenodd" clip-rule="evenodd" d="M103.822 97.72A55 55 0 00117 62h-5c0 27.614-22.386 50-50 50S12 89.614 12 62s22.386-50 50-50c16.63 0 31.364 8.119 40.454 20.609l4.042-2.937a55 55 0 10-2.674 68.048z" fill="#8AAEE6"/></svg><svg fill="none" viewBox="0 0 123 123" id="about-me--about-bar4" xmlns="http://www.w3.org/2000/svg"><circle cx="61.5" cy="61.5" r="52.5" stroke="#fff" stroke-opacity=".1" stroke-width="18"/><path fill-rule="evenodd" clip-rule="evenodd" d="M107.731 92.556A55.004 55.004 0 00117 62h-5c0 27.614-22.386 50-50 50S12 89.614 12 62s22.386-50 50-50V7a55 55 0 1045.731 85.556z" fill="#8AAEE6"/></svg><svg fill="none" viewBox="0 0 417 417" id="about-me--camera" xmlns="http://www.w3.org/2000/svg"><g opacity=".3" stroke="#fff"><circle opacity=".1" cx="208.584" cy="208.584" r="32.409" stroke-width="2"/><path opacity=".1" d="M287.295 245.022c5.137-11.078 8.004-23.423 8.004-36.438 0-47.892-38.823-86.715-86.715-86.715s-86.715 38.823-86.715 86.715c0 47.891 38.823 86.715 86.715 86.715 20.064 0 38.536-6.814 53.229-18.254" stroke-width="5"/><path opacity=".1" d="M114.479 103.551c24.96-22.378 57.943-35.989 94.105-35.989 77.884 0 141.022 63.138 141.022 141.022 0 77.884-63.138 141.022-141.022 141.022-77.884 0-141.022-63.138-141.022-141.022 0-33.391 11.605-64.072 31.002-88.229" stroke-width="10"/><circle opacity=".1" cx="208.146" cy="209.022" r="163.358" stroke-width="5"/><path opacity=".1" d="M42.907 321.689C20.882 289.489 8 250.541 8 208.584 8 127.708 55.865 58.011 124.813 26.277M69.146 352.775c36.094 34.911 85.257 56.393 139.438 56.393 110.779 0 200.584-89.805 200.584-200.584C409.168 97.804 319.363 8 208.584 8c-24.034 0-47.081 4.227-68.438 11.978" stroke-width="15"/></g></svg><svg fill="none" viewBox="0 0 80 80" id="about-us--about-us-optimal-icon1" xmlns="http://www.w3.org/2000/svg"><path d="M71.115 23.362a1.082 1.082 0 01-.964-.59 36.957 36.957 0 00-1.65-2.878 1.082 1.082 0 011.83-1.15 39.002 39.002 0 011.746 3.045 1.08 1.08 0 01-.962 1.573zM74.94 39.644H5.06a1.08 1.08 0 01-1.081-1.082v-.378A36.023 36.023 0 0156.35 6.087a1.08 1.08 0 11-.983 1.924 33.867 33.867 0 00-49.22 29.47h67.704a33.561 33.561 0 00-.82-6.755 1.081 1.081 0 112.11-.478c.587 2.604.882 5.266.88 7.936v.378a1.08 1.08 0 01-1.081 1.082zM64.562 14.422a1.08 1.08 0 01-.757-.312 35.09 35.09 0 00-2.265-2.044 1.08 1.08 0 111.379-1.667 36.805 36.805 0 012.406 2.172 1.081 1.081 0 01-.757 1.85h-.006z" fill="#fff"/><path d="M55.06 39.646H24.94a1.081 1.081 0 01-1.082-1.08v-.383c0-20.198 7.091-36.02 16.142-36.02 9.05 0 16.142 15.822 16.142 36.02v.382a1.081 1.081 0 01-1.081 1.081zm-29.036-2.162h27.952C53.816 19.438 47.481 4.324 40 4.324c-7.481 0-13.816 15.114-13.976 33.16z" fill="#fff"/><path d="M33.54 77.838a7.55 7.55 0 01-7.541-7.542v-1.034a1.08 1.08 0 112.162 0v1.034a5.378 5.378 0 1010.757 0v-31.73a1.08 1.08 0 112.162 0v31.73a7.55 7.55 0 01-7.54 7.542zM59.365 70.627c-.239 0-.471-.08-.66-.226-.433-.332-10.507-8.191-10.507-14.772a7.189 7.189 0 017.014-7.337c1.505 0 2.966.502 4.153 1.426a6.758 6.758 0 014.154-1.426 7.19 7.19 0 017.014 7.337c0 6.582-10.078 14.44-10.507 14.772-.19.147-.422.226-.66.226zm-4.153-20.173a5.028 5.028 0 00-4.852 5.175c0 4.245 5.986 10.047 9.005 12.532 3.021-2.486 9.006-8.287 9.006-12.532a5.028 5.028 0 00-4.852-5.175 4.676 4.676 0 00-3.376 1.463 1.111 1.111 0 01-1.555 0 4.673 4.673 0 00-3.376-1.463zM20.178 64.865c-.239 0-.471-.079-.66-.225-.356-.275-8.707-6.79-8.707-12.29a6.1 6.1 0 015.956-6.22c1.227 0 2.423.393 3.411 1.122a5.747 5.747 0 013.412-1.122 6.1 6.1 0 015.956 6.22c0 5.5-8.351 12.015-8.707 12.29a1.074 1.074 0 01-.66.225zm-3.412-16.573a3.937 3.937 0 00-3.793 4.058c0 3.36 4.711 7.972 7.205 10.047 2.494-2.075 7.206-6.688 7.206-10.047a3.937 3.937 0 00-3.794-4.058 3.648 3.648 0 00-2.634 1.144 1.116 1.116 0 01-1.555 0 3.646 3.646 0 00-2.634-1.144z" fill="#fff"/></svg><svg fill="none" viewBox="0 0 80 80" id="about-us--about-us-optimal-icon2" xmlns="http://www.w3.org/2000/svg"><path d="M32.087 71.796a1.11 1.11 0 01-.277-.037A32.089 32.089 0 019 48.923a1.081 1.081 0 112.09-.549 29.924 29.924 0 0021.275 21.297 1.082 1.082 0 01-.276 2.128l-.002-.003zM68.054 55.048a1.081 1.081 0 01-.975-1.55 29.142 29.142 0 001.876-5.126 1.081 1.081 0 012.09.549 31.367 31.367 0 01-2.014 5.513 1.082 1.082 0 01-.977.614zM47.934 71.796a1.081 1.081 0 01-.272-2.128 29.121 29.121 0 007.505-3.135 1.081 1.081 0 011.105 1.857 31.186 31.186 0 01-8.063 3.371c-.09.024-.182.035-.275.035zM61.816 63.849a1.081 1.081 0 01-.756-1.851 28.08 28.08 0 002.04-2.237 1.08 1.08 0 111.676 1.366 30.081 30.081 0 01-2.198 2.41c-.203.2-.477.312-.762.312zM10.033 33.892a1.08 1.08 0 01-1.045-1.351A32.127 32.127 0 0131.81 9.7a1.081 1.081 0 01.552 2.09A29.96 29.96 0 0011.078 33.09a1.081 1.081 0 01-1.045.803zM69.99 33.881a1.081 1.081 0 01-1.046-.805A29.946 29.946 0 0047.658 11.79a1.082 1.082 0 11.558-2.09 32.117 32.117 0 0122.819 22.823 1.081 1.081 0 01-1.046 1.357zM40.01 55.514a14.786 14.786 0 01-6.404-28.108 15.04 15.04 0 0112.81 0 14.782 14.782 0 01-6.405 28.108zm0-27.406a12.628 12.628 0 10-.002 25.256 12.628 12.628 0 00.003-25.256z" fill="#fff"/><path d="M45.946 29.46a1.08 1.08 0 01-1.076-1.202l2.422-21.496a1.263 1.263 0 00-1.254-1.405H33.984a1.262 1.262 0 00-1.255 1.405l2.421 21.495A1.081 1.081 0 1133 28.5L30.582 7.004a3.426 3.426 0 013.402-3.806h12.055a3.425 3.425 0 013.402 3.806L47.02 28.5a1.081 1.081 0 01-1.074.96zM5.905 50.18a3.425 3.425 0 01-3.425-3.423V34.702a3.423 3.423 0 013.806-3.4l21.498 2.418a1.081 1.081 0 01-.241 2.149l-21.498-2.42a1.261 1.261 0 00-1.405 1.253v12.055a1.264 1.264 0 001.405 1.254l21.495-2.42a1.08 1.08 0 011.183 1.377 1.081 1.081 0 01-.941.771L6.286 50.162a3.45 3.45 0 01-.381.018zM46.039 78.26H33.986a3.424 3.424 0 01-3.402-3.806l2.42-21.495a1.08 1.08 0 112.147.242l-2.42 21.495a1.264 1.264 0 001.255 1.406h12.053a1.26 1.26 0 001.254-1.406l-2.42-21.495a1.083 1.083 0 01.951-1.217 1.08 1.08 0 011.198.975l2.42 21.495a3.423 3.423 0 01-3.403 3.806zM74.118 50.18c-.128 0-.255-.008-.382-.022l-21.495-2.42a1.082 1.082 0 11.242-2.149l21.495 2.42a1.259 1.259 0 001.406-1.253V34.703a1.26 1.26 0 00-1.406-1.254l-21.495 2.418a1.081 1.081 0 11-.242-2.148l21.495-2.42a3.425 3.425 0 013.807 3.404v12.054a3.423 3.423 0 01-3.425 3.424v-.002zM30.329 32.124c-.287 0-.562-.114-.765-.316l-4.075-4.076a1.08 1.08 0 111.528-1.529l4.076 4.076a1.081 1.081 0 01-.764 1.845zM26.25 55.568a1.082 1.082 0 01-.765-1.846l4.076-4.075a1.08 1.08 0 111.528 1.528l-4.075 4.076a1.081 1.081 0 01-.765.317zM53.77 55.568c-.287 0-.562-.114-.765-.317l-4.074-4.076a1.08 1.08 0 011.529-1.528l4.074 4.075a1.081 1.081 0 01-.764 1.846zM49.697 32.128a1.08 1.08 0 01-.764-1.846l4.075-4.076a1.081 1.081 0 011.53 1.53L50.46 31.81a1.081 1.081 0 01-.764.317z" fill="#fff"/></svg><svg fill="none" viewBox="0 0 80 80" id="about-us--about-us-optimal-icon3" xmlns="http://www.w3.org/2000/svg"><path d="M73.33 52.26a1.081 1.081 0 01-1.057-1.31 30.3 30.3 0 00.501-3.09 1.08 1.08 0 012.15.236 32.748 32.748 0 01-.541 3.31 1.082 1.082 0 01-1.052.853zM41.72 77.838A33.42 33.42 0 0114.691 24.78a1.08 1.08 0 01.875-.445h10.605a1.082 1.082 0 01.933.534l6.049 10.33 6.03-10.328a1.081 1.081 0 01.934-.536H67.86a1.082 1.082 0 01.872.443 33.154 33.154 0 016.07 15.055 1.08 1.08 0 01-1.347 1.191 1.082 1.082 0 01-.796-.9 30.993 30.993 0 00-5.354-13.621H40.74L34.09 37.891a1.082 1.082 0 01-1.472.397 1.081 1.081 0 01-.395-.391l-6.67-11.4h-9.43A31.244 31.244 0 0063.61 66.722a1.08 1.08 0 011.514 1.542 33.19 33.19 0 01-23.405 9.575zM69.382 62.238a1.081 1.081 0 01-.923-1.642 27.84 27.84 0 001.459-2.703 1.082 1.082 0 111.958.914 29.849 29.849 0 01-1.568 2.92 1.082 1.082 0 01-.926.51z" fill="#fff"/><path d="M27.158 65.838c-.19 0-.377-.05-.54-.146a26.096 26.096 0 01-12-15.568 1.08 1.08 0 112.086-.566A23.912 23.912 0 0027.7 63.828a1.082 1.082 0 01-.541 2.015l-.002-.005zM47.12 56.96a4.706 4.706 0 11-.022-9.414 4.706 4.706 0 01.022 9.415zm-.015-7.253a2.51 2.51 0 10-.004 5.022 2.51 2.51 0 00.004-5.023v.001zM57.601 61.694a4.707 4.707 0 01-.638-9.37 4.705 4.705 0 11.64 9.37h-.002zm-.014-7.252a2.533 2.533 0 00-2.447 1.889 2.532 2.532 0 102.447-1.89v.001zM47.784 68.442a4.707 4.707 0 111.528-9.152 4.707 4.707 0 01-1.528 9.152zm-.011-7.253a2.545 2.545 0 10.008 5.09 2.545 2.545 0 00-.008-5.09zM20.463 26.495a1.08 1.08 0 01-1.064-.894L17.47 14.615a1.078 1.078 0 01.472-1.125 1.08 1.08 0 011.657.751l1.929 10.986a1.083 1.083 0 01-1.066 1.268z" fill="#fff"/><path d="M5.956 17.614a1.08 1.08 0 01-.847-1.753L15.652 2.57a1.081 1.081 0 011.427-.239l14.305 9.118a1.081 1.081 0 01-.402 1.977L6.134 17.6c-.06.01-.12.016-.18.015zM16.739 4.68L8.551 15.001l19.299-3.243L16.74 4.68zM49.886 26.495a1.08 1.08 0 01-1.05-1.346L52.72 9.774a1.081 1.081 0 01.75-.775l11.493-3.294a1.081 1.081 0 01.596 2.079l-10.895 3.122-3.731 14.772a1.081 1.081 0 01-1.047.817z" fill="#fff"/></svg><svg fill="none" viewBox="0 0 7 22" id="angle-border" xmlns="http://www.w3.org/2000/svg"><path d="M6 1H3a2 2 0 00-2 2v3m5 15H3a2 2 0 01-2-2v-3" stroke="#8AAEE6" stroke-width="2" stroke-linecap="round"/></svg><svg fill="none" viewBox="0 0 10 6" id="arrow" xmlns="http://www.w3.org/2000/svg"><path d="M1.5 1.25L5 4.75l3.5-3.5" stroke="#fff" stroke-opacity=".8" stroke-width="1.5" stroke-linecap="round" stroke-linejoin="round"/></svg><svg fill="none" viewBox="0 0 100 13" id="arrow-slide" xmlns="http://www.w3.org/2000/svg"><path fill-rule="evenodd" clip-rule="evenodd" d="M99.344 13c1.263 0 .381-1.417 0-1.837L89.128.315a.914.914 0 00-1.382 0 1.155 1.155 0 000 1.522l8.55 9.01H.975c-.539 0-.976.483-.976 1.077S.437 13 .977 13h98.367z" fill="#fff"/></svg><svg fill="none" viewBox="0 0 50 13" id="arrow-slide-small" xmlns="http://www.w3.org/2000/svg"><path fill-rule="evenodd" clip-rule="evenodd" d="M49.344 13c1.263 0 .381-1.417 0-1.837L39.128.315a.914.914 0 00-1.382 0 1.155 1.155 0 000 1.522l8.55 9.01H.975c-.539 0-.976.483-.976 1.077S.437 13 .977 13h48.367z" fill="#fff"/></svg><svg fill="none" viewBox="0 0 144 156" id="clip" xmlns="http://www.w3.org/2000/svg"><path d="M131.707 11.307C123.378 2.979 111.726-.965 98.894.2 86.333 1.342 74.11 7.276 64.478 16.91l-44.82 44.82a3.962 3.962 0 005.603 5.602l44.819-44.82c8.325-8.325 18.812-13.446 29.53-14.42 10.449-.95 19.858 2.182 26.494 8.818 6.636 6.636 9.768 16.045 8.818 26.493-.974 10.719-6.096 21.206-14.42 29.531L109.2 84.234l-.003.003-53.223 53.223c-12.356 12.356-30.577 14.241-40.617 4.201-4.765-4.765-7.012-11.541-6.327-19.079.71-7.809 4.45-15.458 10.53-21.538L47.62 72.982l.002-.001 36.464-36.464c3.835-3.836 8.645-6.193 13.544-6.638 4.627-.423 8.771.942 11.666 3.837 6.179 6.178 4.922 17.488-2.801 25.21l-44.82 44.82a3.963 3.963 0 005.603 5.603l44.82-44.82c10.811-10.812 12.068-27.147 2.801-36.415-4.588-4.587-10.975-6.764-17.987-6.125-6.74.612-13.285 3.782-18.429 8.926L42.018 67.38 13.956 95.442C6.57 102.83 2.016 112.214 1.14 121.865c-.902 9.921 2.158 18.941 8.616 25.399C15.623 153.131 23.51 156 31.82 156c10.284 0 21.214-4.395 29.758-12.937L98.09 106.55l.001-.002 28.013-28.013c9.633-9.632 15.567-21.855 16.709-34.416 1.166-12.83-2.778-24.484-11.106-32.812z" fill="#0A0C0F"/></svg><svg fill="none" viewBox="0 0 45 45" id="contacts--calendar" xmlns="http://www.w3.org/2000/svg"><g clip-path="url(#anclip0)" fill="#fff"><path d="M42.363 3.867h-3.01v-.879A2.992 2.992 0 0036.364 0a2.992 2.992 0 00-2.988 2.988v.88h-7.899v-.88A2.992 2.992 0 0022.489 0 2.992 2.992 0 0019.5 2.988v.88h-7.898v-.88A2.992 2.992 0 008.613 0a2.992 2.992 0 00-2.988 2.988v.88H2.637A2.64 2.64 0 000 6.503v35.855a2.64 2.64 0 002.637 2.636h16.359a.88.88 0 000-1.758H2.636a.88.88 0 01-.878-.879v-26.01H37.09a.879.879 0 100-1.758H1.758V6.504a.88.88 0 01.879-.879h2.988v3.003a2.992 2.992 0 002.988 2.988 2.992 2.992 0 002.989-2.988.879.879 0 10-1.758 0c0 .678-.552 1.23-1.23 1.23-.68 0-1.231-.552-1.231-1.23V5.625H19.5v3.003a2.992 2.992 0 002.989 2.988 2.992 2.992 0 002.988-2.988.879.879 0 10-1.758 0c0 .678-.552 1.23-1.23 1.23-.679 0-1.23-.552-1.23-1.23V5.625h12.117v3.003a2.992 2.992 0 002.988 2.988 2.992 2.992 0 002.989-2.988.879.879 0 10-1.758 0c0 .678-.552 1.23-1.23 1.23-.679 0-1.231-.552-1.231-1.23V5.625h7.23a.88.88 0 01.878.879v35.855a.88.88 0 01-.879.878H26.027a.88.88 0 000 1.758h16.336A2.64 2.64 0 0045 42.36V6.504a2.64 2.64 0 00-2.637-2.637zm-34.98-.879c0-.678.552-1.23 1.23-1.23.679 0 1.23.552 1.23 1.23v.88h-2.46v-.88zm13.875 0c0-.678.552-1.23 1.23-1.23.68 0 1.231.552 1.231 1.23v.88h-2.46v-.88zm13.876 0c0-.678.552-1.23 1.23-1.23.679 0 1.23.552 1.23 1.23v.88h-2.46v-.88z"/><path d="M31.64 29.527c0-5.089-4.14-9.229-9.228-9.229-5.089 0-9.228 4.14-9.228 9.229 0 5.088 4.14 9.228 9.228 9.228 5.089 0 9.229-4.14 9.229-9.228zm-16.699 0c0-4.12 3.352-7.47 7.471-7.47 4.12 0 7.47 3.35 7.47 7.47 0 4.119-3.35 7.47-7.47 7.47-4.12 0-7.47-3.351-7.47-7.47z"/><path d="M22.287 30.795V24.5c0-.276-.288-.5-.644-.5-.355 0-.643.224-.643.5v6.502c0 .133.068.26.189.354l3.217 2.5a.78.78 0 00.906-.003c.25-.194.251-.508.004-.703l-3.03-2.355z"/></g><defs><clipPath id="anclip0"><path fill="#fff" d="M0 0h45v45H0z"/></clipPath></defs></svg><svg fill="none" viewBox="0 0 40 40" id="contacts--mail" xmlns="http://www.w3.org/2000/svg"><path d="M19.743 0c2.647 0 5.133.498 7.458 1.495a18.813 18.813 0 016.17 4.273c1.788 1.815 3.183 3.97 4.184 6.462 1.038 2.456 1.556 5.162 1.556 8.117 0 .605-.053 1.442-.16 2.51a19.853 19.853 0 01-.537 3.311 14.44 14.44 0 01-1.288 3.311 7.07 7.07 0 01-2.253 2.564c-.93.676-2.093 1.014-3.487 1.014-1.18 0-2.075-.231-2.683-.694-.572-.463-.966-1.086-1.18-1.869a17.36 17.36 0 01-.483-2.51c-.966 1.032-2.253 1.922-3.863 2.67-1.574.748-3.29 1.122-5.15 1.122-2.468 0-4.418-.659-5.848-1.976-1.431-1.318-2.146-2.99-2.146-5.02 0-1.78.5-3.169 1.502-4.166 1.001-1.032 2.253-1.762 3.755-2.19 1.503-.427 3.04-.64 4.614-.64 1.574 0 2.987.16 4.239.48 1.252.285 2.164.534 2.736.748 0-1.78-.197-3.347-.59-4.7-.394-1.388-1.091-2.474-2.093-3.257-.965-.784-2.342-1.175-4.13-1.175-1.36 0-2.701.231-4.024.694a14 14 0 00-3.542 1.87l-.858-1.656a17.067 17.067 0 014.024-2.03 14.238 14.238 0 014.614-.747c1.895 0 3.416.32 4.56.961 1.145.64 1.985 1.495 2.522 2.563.572 1.033.948 2.19 1.126 3.472.215 1.281.322 2.58.322 3.898v7.37c0 1.567.161 2.813.483 3.738.322.926 1.091 1.389 2.307 1.389 1.145 0 2.092-.374 2.843-1.122.787-.747 1.395-1.709 1.825-2.884.465-1.174.786-2.403.965-3.684.18-1.282.269-2.421.269-3.418 0-2.635-.465-5.074-1.395-7.317-.895-2.278-2.164-4.272-3.81-5.981a17.479 17.479 0 00-5.633-4.005c-2.146-.962-4.47-1.442-6.974-1.442-2.433 0-4.74.463-6.921 1.388a18.091 18.091 0 00-5.74 3.792c-1.682 1.638-3.005 3.578-3.97 5.821-.967 2.243-1.45 4.7-1.45 7.37 0 2.563.448 4.966 1.342 7.21.93 2.242 2.2 4.2 3.809 5.874a18.094 18.094 0 005.687 4.005c2.182.962 4.524 1.442 7.028 1.442 1.466 0 2.88-.178 4.238-.534 1.36-.32 2.683-.819 3.97-1.495l.644 1.442a20.42 20.42 0 01-4.399 1.602 18.81 18.81 0 01-4.453.534c-2.682 0-5.204-.516-7.565-1.549a19.209 19.209 0 01-6.17-4.219c-1.788-1.815-3.2-3.934-4.238-6.355C.501 25.421 0 22.768 0 19.92c0-2.99.537-5.697 1.61-8.118 1.073-2.456 2.539-4.557 4.399-6.301a19.234 19.234 0 016.33-4.06A19.446 19.446 0 0119.744 0zm3.434 28.785c1.61-.748 2.61-1.638 3.004-2.67.43-1.068.644-2.119.644-3.151v-2.243c-.429-.036-1.27-.25-2.521-.64-1.216-.392-2.737-.588-4.56-.588-1.324 0-2.576.16-3.756.48-1.18.285-2.146.82-2.897 1.602-.716.748-1.073 1.78-1.073 3.098 0 1.638.59 2.937 1.77 3.898 1.18.926 2.629 1.389 4.346 1.389.894 0 1.788-.107 2.682-.32.93-.25 1.717-.535 2.361-.855z" fill="#fff"/></svg><svg fill="none" viewBox="0 0 31 45" id="contacts--marker" xmlns="http://www.w3.org/2000/svg"><path d="M15.5 0C7.47 0 .936 6.534.936 14.565c0 7.182 4.981 16.596 9.16 23.228a.916.916 0 101.55-.976C4.307 25.17 2.767 18.287 2.767 14.565 2.767 7.544 8.48 1.83 15.501 1.83c7.02 0 12.733 5.713 12.733 12.734 0 11.402-13.324 28.785-13.458 28.96a.916.916 0 001.45 1.12c.565-.732 13.84-18.053 13.84-30.08C30.066 6.534 23.532 0 15.5 0z" fill="#fff"/><path d="M15.501 9.92a.916.916 0 000-1.83 6.483 6.483 0 00-6.476 6.475 6.483 6.483 0 006.476 6.476 6.483 6.483 0 006.476-6.476 6.419 6.419 0 00-1.315-3.913.916.916 0 00-1.459 1.108c.617.812.942 1.782.942 2.805a4.65 4.65 0 01-4.644 4.644 4.65 4.65 0 01-4.644-4.644A4.65 4.65 0 0115.5 9.92z" fill="#fff"/></svg><svg fill="none" viewBox="0 0 37 45" id="contacts--person" xmlns="http://www.w3.org/2000/svg"><path d="M35.69 37.186c-.743-2.322-2.415-6.983-3.425-7.997-1.144-1.15-4.702-3.565-8.39-3.914v-.09c.125-.083.25-.168.372-.257 1.355-.994 2.454-2.415 3.264-4.223 1.15-2.564 1.733-5.9 1.733-9.912C29.244 4.842 24.424 0 18.498 0c-1.763 0-3.512.438-5.058 1.268a.88.88 0 00.832 1.55 8.962 8.962 0 014.226-1.06c4.837 0 8.793 3.86 8.98 8.676-1.913-.373-3.83-1.574-5.377-3.394a.879.879 0 00-1.327-.015c-1.27 1.43-3.591 2.734-6.057 3.402-2.196.596-4.13.561-5.195-.072a9.075 9.075 0 011.068-3.86.88.88 0 00-1.547-.833 10.844 10.844 0 00-1.29 5.104v.027c0 4.012.583 7.348 1.733 9.913.81 1.807 1.909 3.228 3.264 4.222.122.09.247.174.373.256v.09c-3.69.35-7.248 2.765-8.39 3.914-1.01 1.015-2.683 5.675-3.426 7.998-.532 1.663-.659 4.046.583 5.747C2.891 44.304 4.553 45 6.83 45h14.55a.879.879 0 100-1.758H6.829c-1.683 0-2.867-.453-3.52-1.346-.853-1.17-.71-2.98-.328-4.174 1.3-4.064 2.597-6.892 2.997-7.294 1.053-1.057 4.178-3.04 7.153-3.387.152 3.756 2.5 6.75 5.367 6.75s5.216-2.994 5.368-6.75c2.974.347 6.1 2.33 7.153 3.387.4.402 1.697 3.23 2.997 7.294.382 1.194.525 3.004-.33 4.174-.651.893-1.835 1.346-3.518 1.346H27.44a.879.879 0 000 1.758h2.728c2.276 0 3.937-.696 4.938-2.067 1.242-1.701 1.116-4.084.584-5.747zm-24.6-17.2c-.907-2.022-1.426-4.61-1.55-7.708.666.222 1.433.336 2.28.336 1.018 0 2.15-.162 3.358-.49 2.39-.648 4.683-1.854 6.223-3.243 1.774 1.82 3.912 2.996 6.058 3.334-.231 6.096-2.073 12.699-8.96 12.699-1.527 0-2.848-.307-3.977-.928a.875.875 0 00-.178-.103c-1.373-.81-2.45-2.104-3.254-3.896zm11.026 6.668c0 2.915-1.657 5.378-3.618 5.378-1.96 0-3.618-2.463-3.618-5.377v-.59c1.095.402 2.304.607 3.618.607s2.523-.205 3.618-.607v.59z" fill="#fff"/><path d="M14.856 15.33c.386 0 .725.26.825.633a.879.879 0 101.697-.454 2.615 2.615 0 00-2.522-1.936c-1.18 0-2.217.796-2.523 1.936a.879.879 0 101.698.454c.1-.372.439-.633.825-.633zM20.24 16.585a.879.879 0 001.076-.622.855.855 0 011.65 0 .88.88 0 001.698-.454 2.616 2.616 0 00-2.523-1.936c-1.18 0-2.217.796-2.523 1.936a.879.879 0 00.622 1.076zM16.623 19.758a.879.879 0 10-1.523.879c.699 1.21 2 1.961 3.398 1.961a3.934 3.934 0 003.397-1.961.879.879 0 10-1.522-.88 2.171 2.171 0 01-1.875 1.083c-.771 0-1.49-.414-1.875-1.082z" fill="#fff"/></svg><svg fill="none" viewBox="0 0 40 40" id="contacts--phone" xmlns="http://www.w3.org/2000/svg"><path d="M11.182 28.82A42.9 42.9 0 0014.74 32c4.764 3.8 10.239 6.475 16.057 7.818a7.013 7.013 0 007.87-3.707l.925-1.849a3.925 3.925 0 00-1.484-5.097l-5.888-3.532a3.903 3.903 0 00-5.36 1.34l-1.022 1.703a.778.778 0 01-.96.324C18.763 26.553 13.446 21.236 11 15.124a.778.778 0 01.324-.96l1.702-1.023a3.903 3.903 0 001.34-5.359l-3.532-5.888A3.924 3.924 0 005.74.41l-1.85.924a7.012 7.012 0 00-3.707 7.87c1.691 7.328 5.495 14.11 11 19.615zm20.234-1.847l5.887 3.532a2.354 2.354 0 01.89 3.058l-.41.821-9.96-5.978.378-.63a2.341 2.341 0 013.215-.803zM4.588 2.73l1.85-.924a2.355 2.355 0 013.057.89l3.533 5.889a2.34 2.34 0 01-.805 3.215l-.63.379-3.538-5.9a.781.781 0 10-1.34.805l3.549 5.917a2.332 2.332 0 00-.714 2.702c1.269 3.172 3.315 6.225 5.919 8.828 2.603 2.603 5.656 4.65 8.828 5.918.977.391 2.067.089 2.704-.715l10.068 6.043a5.454 5.454 0 01-5.921 2.518C25.536 37 20.304 34.393 15.819 30.839a40.74 40.74 0 01-3.665-3.283C7.069 22.42 3.34 15.94 1.705 8.854A5.455 5.455 0 014.588 2.73z" fill="#fff"/></svg><svg fill="none" viewBox="0 0 80 80" id="cross" xmlns="http://www.w3.org/2000/svg"><g opacity=".8" fill="#fff"><path d="M32.088 71.796a1.11 1.11 0 01-.277-.037A32.089 32.089 0 019 48.923a1.081 1.081 0 112.09-.549 29.924 29.924 0 0021.274 21.297 1.082 1.082 0 01-.275 2.128l-.002-.003zM68.053 55.048a1.081 1.081 0 01-.975-1.55 29.142 29.142 0 001.876-5.126 1.081 1.081 0 012.09.549 31.36 31.36 0 01-2.014 5.513 1.08 1.08 0 01-.977.614zM47.934 71.796a1.081 1.081 0 01-.273-2.128 29.122 29.122 0 007.505-3.135 1.081 1.081 0 011.105 1.857 31.186 31.186 0 01-8.063 3.371c-.09.024-.182.035-.274.035zM61.817 63.849a1.081 1.081 0 01-.757-1.851 28.06 28.06 0 002.04-2.237 1.081 1.081 0 111.677 1.366 30.081 30.081 0 01-2.199 2.41c-.203.2-.476.312-.761.312zM10.033 33.892a1.08 1.08 0 01-1.045-1.351A32.127 32.127 0 0131.81 9.7a1.082 1.082 0 01.553 2.09A29.96 29.96 0 0011.078 33.09a1.082 1.082 0 01-1.045.803zM69.99 33.881a1.081 1.081 0 01-1.046-.805A29.946 29.946 0 0047.658 11.79a1.082 1.082 0 11.558-2.09 32.117 32.117 0 0122.819 22.823 1.081 1.081 0 01-1.046 1.357zM40.011 55.514a14.786 14.786 0 01-6.405-28.108 15.04 15.04 0 0112.81 0 14.782 14.782 0 01-6.405 28.108zm0-27.406a12.628 12.628 0 10-.002 25.256 12.628 12.628 0 00.002-25.256z"/><path d="M45.946 29.46a1.08 1.08 0 01-1.076-1.202l2.422-21.496a1.262 1.262 0 00-1.254-1.405H33.984a1.262 1.262 0 00-1.254 1.405l2.42 21.495a1.081 1.081 0 11-2.149.243l-2.42-21.496a3.424 3.424 0 013.403-3.806h12.054a3.425 3.425 0 013.402 3.806L47.02 28.5a1.081 1.081 0 01-1.074.96zM5.905 50.18a3.425 3.425 0 01-3.425-3.423V34.702a3.423 3.423 0 013.807-3.4l21.497 2.418a1.081 1.081 0 01-.24 2.149l-21.498-2.42a1.261 1.261 0 00-1.406 1.253v12.055a1.264 1.264 0 001.406 1.254l21.495-2.42a1.08 1.08 0 011.182 1.377 1.08 1.08 0 01-.94.771L6.286 50.162a3.45 3.45 0 01-.382.018zM46.039 78.26H33.986a3.424 3.424 0 01-3.402-3.806l2.42-21.495a1.08 1.08 0 112.147.242l-2.42 21.495a1.264 1.264 0 001.255 1.406h12.053a1.26 1.26 0 001.254-1.406l-2.42-21.495a1.083 1.083 0 01.951-1.217 1.08 1.08 0 011.198.975l2.42 21.495a3.423 3.423 0 01-3.403 3.806zM74.118 50.18c-.127 0-.254-.008-.381-.022l-21.495-2.42a1.083 1.083 0 01-.566-1.93 1.08 1.08 0 01.808-.219l21.495 2.42a1.259 1.259 0 001.405-1.253V34.703a1.26 1.26 0 00-1.405-1.254l-21.495 2.418a1.081 1.081 0 11-.242-2.148l21.495-2.42a3.424 3.424 0 013.806 3.404v12.054a3.425 3.425 0 01-3.425 3.424v-.002zM30.328 32.124c-.286 0-.561-.114-.764-.316l-4.076-4.076a1.08 1.08 0 111.529-1.529l4.076 4.076a1.081 1.081 0 01-.765 1.845zM26.249 55.568a1.082 1.082 0 01-.764-1.846l4.075-4.075a1.08 1.08 0 111.529 1.528l-4.076 4.076a1.081 1.081 0 01-.764.317zM53.77 55.568c-.287 0-.562-.114-.765-.317l-4.075-4.076a1.08 1.08 0 011.53-1.528l4.074 4.075a1.081 1.081 0 01-.765 1.846zM49.698 32.128a1.081 1.081 0 01-.764-1.846l4.075-4.076a1.081 1.081 0 011.529 1.53l-4.076 4.075a1.081 1.081 0 01-.764.317z"/></g></svg><svg fill="none" viewBox="0 0 31 45" id="dress" xmlns="http://www.w3.org/2000/svg"><path d="M29.663 16.57c-.075-.078-3.004-1.815-3.004-1.815l.168-.385c.262-.597.031-1.278-.548-1.618a1.434 1.434 0 00-1.76.243l-.281.3-4.064-2.451c-.342-.196-.472-.574-.476-.95a3.06 3.06 0 00-2.994-2.456h-.57V5.66a2.854 2.854 0 002.208-2.88A2.875 2.875 0 0015.594.003a2.88 2.88 0 00-2.671 1.558.658.658 0 101.17.6 1.56 1.56 0 011.448-.843c.81.033 1.462.693 1.486 1.503a1.545 1.545 0 01-1.36 1.589.964.964 0 00-.85.953v2.076h-.5a3.07 3.07 0 00-2.982 2.4c-.09.492-.386.933-.816 1.19l-3.757 2.266-.28-.3a1.433 1.433 0 00-1.762-.242c-.578.34-.809 1.02-.547 1.618l.168.385-2.927 1.765a2.016 2.016 0 00-.97 1.717.658.658 0 101.316 0c0-.217.105-.422.277-.551h3.586l1.899 4.34a25.553 25.553 0 001.713 3.25l.552.888a32.507 32.507 0 00-7.44 13.46l-1.055 3.881c-.097.36-.024.734.202 1.03.226.295.569.465.94.465H6.43a.658.658 0 000-1.316H2.607l1.009-3.715a31.183 31.183 0 017.259-13.044c.33-.354.382-.888.126-1.3l-.65-1.043a24.236 24.236 0 01-1.624-3.083l-3.332-7.617c.046-.021.107-.008.126.013l4.522 4.826c1.365 1.456 3.354 2.292 5.457 2.292 2.103 0 4.092-.836 5.457-2.292l4.522-4.826c.02-.021.08-.034.126-.013L22.273 21.5a24.23 24.23 0 01-1.625 3.082l-.65 1.044a1.075 1.075 0 00.128 1.3 31.158 31.158 0 013.117 3.94.658.658 0 001.095-.731 32.48 32.48 0 00-3.125-3.97l.552-.888a25.549 25.549 0 001.713-3.25l1.899-4.34h3.586c.172.128.277.333.277.55a.658.658 0 101.316 0c0-.667-.34-1.297-.893-1.666zm-25.453-.2l.663-.4.175.4H4.21zm6.988-4.214a3.066 3.066 0 001.406-1.962l.016-.075a1.747 1.747 0 011.697-1.365h2.387c.808 0 1.511.562 1.692 1.345a2.287 2.287 0 001.098 1.871l3.824 2.306-1.963 2.096-.018-.001H9.644l-1.962-2.094 3.516-2.121zm4.302 7.541c-1.74 0-3.38-.684-4.497-1.876l-.126-.135h9.246l-.126.135c-1.117 1.192-2.756 1.876-4.497 1.876zm10.627-3.726l.663.4h-.838l.175-.4zM28.654 39.624a32.423 32.423 0 00-2.771-6.924.658.658 0 10-1.157.626 31.107 31.107 0 012.658 6.643l1.01 3.715H9.596a.658.658 0 100 1.316h18.968c.372 0 .715-.17.94-.465.227-.295.3-.67.203-1.03l-1.054-3.88z" fill="#fff"/></svg><svg fill="none" viewBox="0 0 80 80" id="drink" xmlns="http://www.w3.org/2000/svg"><g opacity=".3" fill="#fff"><path d="M73.33 52.26a1.082 1.082 0 01-1.057-1.31 30.3 30.3 0 00.5-3.09 1.08 1.08 0 012.15.236 32.777 32.777 0 01-.541 3.31 1.08 1.08 0 01-1.052.853zM41.719 77.838A33.42 33.42 0 0114.692 24.78a1.08 1.08 0 01.874-.445h10.606a1.082 1.082 0 01.933.534l6.048 10.33 6.03-10.328a1.081 1.081 0 01.935-.536h27.741a1.082 1.082 0 01.873.443A33.155 33.155 0 0174.8 39.833a1.081 1.081 0 11-2.143.292 30.993 30.993 0 00-5.353-13.622H40.739l-6.648 11.388a1.081 1.081 0 01-1.867.006l-6.67-11.4h-9.43A31.244 31.244 0 0063.61 66.722a1.08 1.08 0 011.513 1.542 33.19 33.19 0 01-23.404 9.575zM69.383 62.238a1.081 1.081 0 01-.923-1.642 27.861 27.861 0 001.458-2.703 1.08 1.08 0 111.959.914 29.849 29.849 0 01-1.569 2.92 1.082 1.082 0 01-.925.51z"/><path d="M27.158 65.838c-.19 0-.377-.05-.54-.146a26.096 26.096 0 01-12-15.568 1.08 1.08 0 112.086-.566A23.912 23.912 0 0027.7 63.828a1.082 1.082 0 01-.541 2.015l-.002-.005zM47.12 56.96a4.706 4.706 0 11-.023-9.414 4.706 4.706 0 01.022 9.415zm-.016-7.253a2.511 2.511 0 10-.003 5.023 2.511 2.511 0 00.003-5.024v.001zM57.602 61.694a4.707 4.707 0 01-.638-9.37 4.704 4.704 0 015.27 5.44 4.706 4.706 0 01-4.63 3.93h-.002zm-.014-7.252a2.533 2.533 0 00-2.447 1.889 2.532 2.532 0 102.447-1.89v.001zM47.785 68.442a4.707 4.707 0 111.528-9.152 4.707 4.707 0 01-1.528 9.152zm-.011-7.253a2.545 2.545 0 10.008 5.09 2.545 2.545 0 00-.008-5.09zM20.463 26.495a1.08 1.08 0 01-1.064-.894L17.47 14.615a1.078 1.078 0 01.472-1.125 1.08 1.08 0 011.657.751l1.929 10.986a1.083 1.083 0 01-1.066 1.268z"/><path d="M5.956 17.614a1.08 1.08 0 01-.846-1.753L15.652 2.57a1.081 1.081 0 011.427-.239l14.305 9.118a1.081 1.081 0 01-.402 1.977L6.136 17.6c-.06.01-.12.016-.18.015zM16.74 4.68L8.552 15.001l19.298-3.243L16.74 4.68zM49.888 26.495a1.08 1.08 0 01-1.05-1.346L52.72 9.774a1.08 1.08 0 01.75-.775l11.493-3.294a1.081 1.081 0 01.596 2.079l-10.895 3.122-3.731 14.772a1.08 1.08 0 01-1.046.817z"/></g></svg><svg fill="none" viewBox="0 0 52 40" id="eye-border" xmlns="http://www.w3.org/2000/svg"><g opacity=".8" fill="#fff"><path d="M40.714 20.664a1.084 1.084 0 10-1.876-1.086C36.19 24.151 31.272 26.992 26 26.992c-5.06 0-9.796-2.617-12.508-6.87C16.204 15.866 20.939 13.25 26 13.25c3.169 0 6.192.987 8.74 2.853a1.084 1.084 0 001.281-1.749A16.851 16.851 0 0026 11.083c-6.043 0-11.681 3.255-14.714 8.496-.194.335-.194.75 0 1.085 3.033 5.24 8.67 8.496 14.714 8.496 6.043 0 11.681-3.255 14.714-8.496z"/><path d="M26 23.93a1.084 1.084 0 000 2.168 5.983 5.983 0 005.976-5.977A5.983 5.983 0 0026 14.145a5.983 5.983 0 00-5.977 5.976 1.084 1.084 0 102.168 0c0-2.1 1.709-3.808 3.809-3.808s3.809 1.708 3.809 3.808c0 2.1-1.709 3.809-3.81 3.809z"/></g><path d="M6 5H3a2 2 0 00-2 2v3m5 25H3a2 2 0 01-2-2v-3M46 5h3a2 2 0 012 2v3m-5 25h3a2 2 0 002-2v-3" stroke="#8AAEE6" stroke-width="2" stroke-linecap="round"/></svg><svg fill="none" viewBox="0 0 45 45" id="lens" xmlns="http://www.w3.org/2000/svg"><path d="M22.5 35C29.392 35 35 29.392 35 22.5 35 15.607 29.392 10 22.5 10 15.607 10 10 15.607 10 22.5 10 29.392 15.607 35 22.5 35zm3.389-13.904v2.808l-1.985 1.985h-2.808l-1.985-1.985v-2.808l1.985-1.985h2.808l1.985 1.985zm-13.962 5.587a11.312 11.312 0 01-.797-4.183c0-1.18.18-2.318.515-3.389H19.5l-7.572 7.572zm.504 1.094l5.55-5.551v10.707a11.442 11.442 0 01-5.55-5.156zm6.68 5.578V25.5l7.572 7.572a11.312 11.312 0 01-4.183.797c-1.18 0-2.318-.18-3.389-.515zm8.666-.786l-5.551-5.55h10.707a11.442 11.442 0 01-5.156 5.55zm5.578-6.68H25.5l7.572-7.572c.514 1.295.797 2.707.797 4.183 0 1.18-.18 2.318-.515 3.389zm-.786-8.666l-5.55 5.551V12.067a11.442 11.442 0 015.55 5.156zm-6.68-5.578V19.5l-7.572-7.572a11.312 11.312 0 014.183-.797c1.18 0 2.318.18 3.389.515zm-8.666.786l5.551 5.55H12.067a11.442 11.442 0 015.156-5.55z" fill="#fff"/><path d="M.899 22.5a.873.873 0 01-.882-.9 22.5 22.5 0 111.999 10.21.873.873 0 01.477-1.165.931.931 0 011.191.486 20.7 20.7 0 10-1.865-9.53.931.931 0 01-.92.899z" fill="#fff"/></svg><svg fill="none" viewBox="0 0 89 28" id="logo" xmlns="http://www.w3.org/2000/svg"><circle cx="41" cy="14" r="9" stroke="#fff" stroke-opacity=".15" stroke-width="10"/><path d="M0 23.096V5.384h5.712c1.92 0 3.352.408 4.296 1.224.944.8 1.416 1.96 1.416 3.48v.336c0 .912-.176 1.664-.528 2.256a3.604 3.604 0 01-1.464 1.344c.832.288 1.488.752 1.968 1.392.496.624.744 1.472.744 2.544v.336c0 1.536-.472 2.72-1.416 3.552-.944.832-2.376 1.248-4.296 1.248H0zM6.12 7.448H2.352v5.736H6.12c.992 0 1.72-.264 2.184-.792.48-.544.72-1.232.72-2.064 0-.848-.24-1.536-.72-2.064-.464-.544-1.192-.816-2.184-.816zm.648 7.704H2.352v5.88h4.416c.944 0 1.672-.264 2.184-.792.528-.544.792-1.264.792-2.16 0-.912-.256-1.624-.768-2.136-.512-.528-1.248-.792-2.208-.792zM16.313 23V5.384h5.736c1.28 0 2.4.192 3.36.576.96.384 1.704.976 2.232 1.776.528.8.792 1.832.792 3.096v.384c0 1.376-.32 2.48-.96 3.312-.624.816-1.48 1.4-2.569 1.752L29.992 23h-2.855l-4.729-6.336h-3.743V23h-2.352zM22.48 7.448h-3.817v7.128h3.816c1.088 0 1.953-.336 2.593-1.008.64-.672.96-1.52.96-2.544 0-1.04-.32-1.896-.96-2.568-.64-.672-1.505-1.008-2.593-1.008zM53.602 23V5.48h3.12l5.184 11.688h.384L67.45 5.48h3.144V23h-2.352V8.48l-4.8 10.896h-2.88l-4.8-10.848V23h-2.16zM81.368 23.432c-1.456 0-2.696-.24-3.72-.72s-1.808-1.144-2.352-1.992c-.544-.848-.816-1.808-.816-2.88h2.352c0 .528.136 1.056.408 1.584.288.528.76.968 1.416 1.32.672.352 1.576.528 2.712.528 1.056 0 1.92-.152 2.592-.456.672-.32 1.168-.728 1.488-1.224.32-.512.48-1.064.48-1.656 0-.72-.312-1.312-.936-1.776-.624-.48-1.536-.776-2.736-.888l-1.944-.168c-1.552-.128-2.792-.608-3.72-1.44-.928-.832-1.392-1.928-1.392-3.288 0-1.072.256-2.008.768-2.808.528-.8 1.256-1.424 2.184-1.872C79.08 5.232 80.16 5 81.392 5c1.216 0 2.288.224 3.216.672.928.448 1.648 1.08 2.16 1.896.528.8.792 1.76.792 2.88h-2.352c0-.56-.136-1.088-.408-1.584-.256-.496-.664-.904-1.224-1.224-.56-.32-1.288-.48-2.184-.48-.864 0-1.584.152-2.16.456-.56.304-.984.704-1.272 1.2-.272.48-.408 1-.408 1.56 0 .64.248 1.208.744 1.704s1.232.784 2.208.864l1.944.168c1.792.16 3.208.656 4.248 1.488 1.056.816 1.584 1.928 1.584 3.336 0 1.072-.288 2.024-.864 2.856-.576.832-1.384 1.48-2.424 1.944-1.04.464-2.248.696-3.624.696z" fill="#fff"/><circle opacity=".6" cx="41" cy="14" r="8" stroke="#fff" stroke-width="2"/></svg><svg fill="none" viewBox="0 0 20 21" id="mail" xmlns="http://www.w3.org/2000/svg"><g stroke="#fff" stroke-width="2" stroke-linecap="round" stroke-linejoin="round"><path d="M3.333 3.833h13.334c.916 0 1.666.75 1.666 1.667v10c0 .917-.75 1.667-1.666 1.667H3.333c-.916 0-1.666-.75-1.666-1.667v-10c0-.917.75-1.667 1.666-1.667z"/><path d="M18.333 5.5L10 11.333 1.667 5.5"/></g></svg><svg fill="none" viewBox="0 0 45 45" id="make-up" xmlns="http://www.w3.org/2000/svg"><g clip-path="url(#azclip0)" fill="#fff"><path d="M44.848 21.35L37.79 10.985a11.744 11.744 0 00-6.168-4.577 11.744 11.744 0 00-7.678.236L17.5 9.108a.879.879 0 10.628 1.642l6.444-2.465a9.903 9.903 0 0111.765 3.69l4.334 6.365-7.778-5.478a6.27 6.27 0 00-5.618-.806L3.872 20.038a1.58 1.58 0 01-1.995-.969 2.008 2.008 0 011.183-2.555l8.053-3.08a.879.879 0 00-.628-1.642l-8.053 3.08a3.757 3.757 0 00-2.214 4.78 3.344 3.344 0 004.222 2.05l23.404-7.982a4.507 4.507 0 014.038.58l11.733 8.263a.876.876 0 001.123-.092.88.88 0 00.11-1.121z"/><path d="M15.147 10.566a.882.882 0 00-1.243 0 .885.885 0 00-.257.621c0 .232.094.458.257.622.164.163.39.257.622.257a.885.885 0 00.62-.257.886.886 0 00.258-.622.884.884 0 00-.257-.62zM37.92 29.769l-.032-.01a5.067 5.067 0 01-2.611-1.875 23.86 23.86 0 001.902-1.708.879.879 0 00-1.242-1.243c-3.447 3.447-7.85 5.59-12.61 6.184a22.034 22.034 0 01-2.724.169H20.6h-.002a22.015 22.015 0 01-2.724-.17c-4.76-.593-9.163-2.736-12.61-6.183a.879.879 0 00-1.243 1.243 23.854 23.854 0 001.903 1.708 5.065 5.065 0 01-2.61 1.874l-.034.01a.879.879 0 00.518 1.68l.036-.011a6.819 6.819 0 003.499-2.503c.3.207.605.407.914.6a4.724 4.724 0 01-2.766 2.963l-.272.108a.879.879 0 10.648 1.634l.272-.109a6.476 6.476 0 003.671-3.711c.338.175.68.342 1.024.5a4.33 4.33 0 01-2.324 3.559l-.053.027a.879.879 0 00.813 1.559l.052-.028a6.081 6.081 0 003.2-4.42c.372.136.748.264 1.128.381a5.85 5.85 0 01-1.537 3.751.879.879 0 001.296 1.188 7.604 7.604 0 001.973-4.475c.505.114 1.015.211 1.53.292a9.081 9.081 0 01-1.218 3.836l-.118.202a.879.879 0 001.516.89l.118-.201a10.841 10.841 0 001.448-4.518c.356.029.714.05 1.073.063v5.222a.879.879 0 101.758 0v-5.222c.359-.013.716-.034 1.073-.063A10.84 10.84 0 0024 37.479l.118.202a.878.878 0 101.516-.89l-.119-.202a9.082 9.082 0 01-1.217-3.836 23.472 23.472 0 001.53-.292 7.603 7.603 0 001.973 4.475.876.876 0 001.242.054.879.879 0 00.054-1.242 5.851 5.851 0 01-1.538-3.751c.38-.117.756-.245 1.13-.382a6.08 6.08 0 003.198 4.421l.053.028a.879.879 0 10.812-1.559l-.052-.027a4.33 4.33 0 01-2.325-3.558c.345-.159.687-.326 1.024-.501a6.476 6.476 0 003.672 3.711l.272.109a.878.878 0 10.648-1.634l-.272-.108a4.724 4.724 0 01-2.766-2.964c.309-.192.613-.392.914-.599a6.82 6.82 0 003.5 2.503l.034.01a.879.879 0 10.519-1.678z"/></g><defs><clipPath id="azclip0"><path fill="#fff" d="M0 0h45v45H0z"/></clipPath></defs></svg><svg fill="none" viewBox="0 0 31 45" id="marker" xmlns="http://www.w3.org/2000/svg"><path d="M15.5 0C7.469 0 .935 6.534.935 14.565c0 7.182 4.982 16.596 9.16 23.228a.916.916 0 101.55-.976C4.307 25.17 2.767 18.287 2.767 14.565 2.767 7.544 8.479 1.83 15.5 1.83c7.021 0 12.733 5.713 12.733 12.734 0 11.402-13.323 28.785-13.458 28.96a.916.916 0 001.45 1.12c.565-.732 13.84-18.053 13.84-30.08C30.065 6.534 23.531 0 15.5 0z" fill="#fff"/><path d="M15.5 9.92a.916.916 0 000-1.83 6.483 6.483 0 00-6.476 6.475A6.483 6.483 0 0015.5 21.04a6.483 6.483 0 006.476-6.476 6.42 6.42 0 00-1.316-3.913.916.916 0 00-1.458 1.108c.616.812.942 1.782.942 2.805a4.65 4.65 0 01-4.644 4.644 4.65 4.65 0 01-4.645-4.644A4.65 4.65 0 0115.5 9.92z" fill="#fff"/></svg><svg fill="none" viewBox="0 0 20 20" id="marker-2" xmlns="http://www.w3.org/2000/svg"><g clip-path="url(#bbclip0)" stroke="#fff" stroke-width="2" stroke-linecap="round" stroke-linejoin="round"><path d="M17.5 8.334c0 5.833-7.5 10.833-7.5 10.833s-7.5-5-7.5-10.834a7.5 7.5 0 0115 0z"/><path d="M10 10.834a2.5 2.5 0 100-5 2.5 2.5 0 000 5z"/></g><defs><clipPath id="bbclip0"><path fill="#fff" d="M0 0h20v20H0z"/></clipPath></defs></svg><svg fill="none" viewBox="0 0 35 45" id="model" xmlns="http://www.w3.org/2000/svg"><path d="M31.104 34.27l-.967-.342V12.637C30.137 5.668 24.467 0 17.5 0 10.532 0 4.864 5.669 4.864 12.636v8.572c0 5.216 1.734 9.073 3.353 11.536l-4.32 1.525a4.894 4.894 0 00-3.26 4.608v5.464a.66.66 0 101.318 0v-5.464c0-1.51.957-2.862 2.38-3.364l7.083-2.5a6.959 6.959 0 004.191 3.274c.374 1.303 1.222 2.602 1.343 2.783a.66.66 0 001.096 0c.121-.18.97-1.48 1.343-2.784a6.923 6.923 0 002.639-1.404c.482 1.126 1.09 2.134 1.69 3.125.2.329.396.655.587.982a4.193 4.193 0 00-1.73.488l-4.724 2.52a.748.748 0 01-.706 0l-4.724-2.52a4.148 4.148 0 00-4.12.104 4.148 4.148 0 00-2.03 3.585v1.175a.66.66 0 101.318 0v-1.175a2.84 2.84 0 011.39-2.455 2.841 2.841 0 012.821-.071l4.725 2.52c.61.325 1.337.325 1.946 0l4.725-2.52a2.809 2.809 0 011.834-.298c.57 1.19.968 2.463.968 3.999a.66.66 0 101.318 0c0-2.933-1.256-5.009-2.47-7.017-1.266-2.093-2.462-4.07-2.462-7.074v-.705a.66.66 0 00-1.318 0v.705c0 1.231.18 2.31.472 3.289a5.634 5.634 0 01-1.999 1.31 2.071 2.071 0 00-2.041-1.735c-1.026 0-1.88.751-2.04 1.733a5.755 5.755 0 01-2.867-2.44 3.483 3.483 0 001.339-2.742V27.42a9.768 9.768 0 003.568.67c4.95 0 9.057-3.684 9.723-8.454h.392c.432 0 .843-.108 1.203-.297V44.34a.66.66 0 101.318 0v-9.015l.529.187a3.573 3.573 0 012.38 3.364v5.464a.66.66 0 101.319 0v-5.464c0-2.068-1.31-3.92-3.26-4.608zm-13.604.162a.75.75 0 01.75.75c0 .63-.38 1.518-.75 2.22-.37-.702-.75-1.59-.75-2.22a.75.75 0 01.75-.75zm11.297-22.473a14.707 14.707 0 01-9.693-2.994A14.971 14.971 0 0114 1.873c1.102-.36 2.279-.555 3.5-.555 6.013 0 10.946 4.714 11.297 10.64zM12.614 29.665c0 .914-.58 1.732-1.44 2.036l-1.674.59c-1.562-2.287-3.318-5.99-3.318-11.083V19.37c.338.173.716.266 1.102.266h.492a9.84 9.84 0 004.838 7.15v2.88zm16.198-12.333c-.055.553-.58.986-1.197.986h-.297v-.039a.66.66 0 00-1.318 0c-.004 4.683-3.817 8.494-8.5 8.494-4.687 0-8.5-3.813-8.5-8.5a.66.66 0 00-1.318 0v.045h-.398A1.105 1.105 0 016.188 17.1c.055-.553.581-.986 1.197-.986h.251a2.776 2.776 0 002.773-2.773v-.705c0-.909.418-1.744 1.146-2.29a.66.66 0 00-.792-1.055 4.15 4.15 0 00-1.672 3.345v.705c0 .802-.652 1.454-1.454 1.454h-.252c-.432 0-.843.109-1.203.298v-2.457c0-3.487 1.586-6.611 4.075-8.689 1.566 3.472 3.882 6.442 6.734 8.626 2.982 2.283 6.416 3.54 9.668 3.54h1.057a1.105 1.105 0 011.096 1.219zm-1.096-2.537h-1.057c-2.964 0-6.113-1.16-8.867-3.269-2.75-2.105-4.972-4.996-6.449-8.382.455-.296.932-.56 1.428-.789a16.302 16.302 0 005.536 7.66 16.015 16.015 0 0010.511 3.263v1.784a2.423 2.423 0 00-1.102-.267z" fill="#fff"/><path d="M14.603 13.132a.66.66 0 00-.834-.417l-2.114.705a.66.66 0 00.417 1.25l2.114-.704a.66.66 0 00.417-.834zM13.932 16.864v-.705a.66.66 0 00-1.319 0v.705a.66.66 0 001.319 0zM21.727 15.5a.66.66 0 00-.659.659v.705a.66.66 0 001.319 0v-.705a.66.66 0 00-.66-.66zM20.67 19.666h-6.34a.66.66 0 00-.66.66c0 1.917 1.718 3.476 3.83 3.476s3.83-1.56 3.83-3.477a.66.66 0 00-.66-.659zm-3.17 2.818c-1.117 0-2.067-.63-2.392-1.5h4.784c-.325.87-1.274 1.5-2.392 1.5z" fill="#fff"/></svg><svg fill="none" viewBox="0 0 41 45" id="model-2" xmlns="http://www.w3.org/2000/svg"><path d="M31.897 27.203a7.363 7.363 0 002.665-5.67v-7.47C34.562 6.307 28.254 0 20.5 0S6.438 6.308 6.438 14.062v7.47a7.363 7.363 0 002.665 5.671c-4.825.504-8.6 4.596-8.6 9.552v7.366c0 .485.394.879.88.879h15.162a.879.879 0 000-1.758H2.262v-6.487c0-4.327 3.52-7.847 7.846-7.847h5.954a4.492 4.492 0 004.438 3.833 4.492 4.492 0 004.438-3.833h5.954c4.327 0 7.847 3.52 7.847 7.847v6.487H24.455a.879.879 0 000 1.758h15.162a.879.879 0 00.88-.879v-7.366c0-4.956-3.775-9.048-8.6-9.552zm-17.732-12.5h1.518c1.423 0 2.76-.598 3.707-1.612a5.563 5.563 0 003.92 1.612h3.525v3.167a6.342 6.342 0 01-6.335 6.335 6.342 6.342 0 01-6.335-6.335v-3.167zm6.335 16.28a2.731 2.731 0 01-2.728-2.728V25.49a8.055 8.055 0 002.728.473c.957 0 1.875-.167 2.728-.473v2.765a2.731 2.731 0 01-2.728 2.728zm4.486-3.832v-2.548a8.092 8.092 0 003.607-6.733v-4.046a.879.879 0 00-.879-.88H23.31a3.829 3.829 0 01-3.825-3.823.879.879 0 00-1.758 0c0 .902.217 1.753.598 2.508a3.314 3.314 0 01-2.642 1.316h-2.397a.879.879 0 00-.879.879v4.046a8.092 8.092 0 003.607 6.733v2.548h-2.2a5.625 5.625 0 01-5.618-5.619v-7.47c0-6.784 5.52-12.304 12.304-12.304 6.785 0 12.304 5.52 12.304 12.304v7.47a5.625 5.625 0 01-5.618 5.619h-2.2z" fill="#fff"/></svg><svg fill="none" viewBox="0 0 20 19" id="phone" xmlns="http://www.w3.org/2000/svg"><path d="M18.333 13.6v2.5a1.666 1.666 0 01-1.816 1.667 16.492 16.492 0 01-7.192-2.559 16.251 16.251 0 01-5-5 16.492 16.492 0 01-2.558-7.225 1.667 1.667 0 011.658-1.816h2.5A1.667 1.667 0 017.592 2.6c.105.8.3 1.586.583 2.342A1.667 1.667 0 017.8 6.7L6.742 7.758a13.333 13.333 0 005 5L12.8 11.7a1.667 1.667 0 011.758-.375c.756.282 1.542.478 2.342.583a1.667 1.667 0 011.433 1.692z" stroke="#fff" stroke-width="2" stroke-linecap="round" stroke-linejoin="round"/></svg><svg fill="none" viewBox="0 0 88 91" id="play" xmlns="http://www.w3.org/2000/svg"><path d="M56.2 44.001c1.333.77 1.333 2.695 0 3.464l-22.5 12.99c-1.333.77-3-.192-3-1.731V32.743c0-1.54 1.667-2.502 3-1.732L56.2 44z" fill="#fff"/></svg><svg fill="none" viewBox="0 0 87 88" id="play-part" xmlns="http://www.w3.org/2000/svg"><path opacity=".3" d="M8.698 1.445C-3.76 23.215-.694 51.449 17.895 70.038c18.589 18.59 46.823 21.655 68.593 9.197" stroke="#fff" stroke-linecap="round"/></svg><svg fill="none" viewBox="0 0 117 117" id="quote" xmlns="http://www.w3.org/2000/svg"><g opacity=".1" fill="#8AAEE5"><path d="M10.12 91.399a2.285 2.285 0 103.778-2.573C7.796 79.869 4.57 69.383 4.57 58.5c0-29.737 24.193-53.93 53.93-53.93s53.93 24.193 53.93 53.93-24.193 53.93-53.93 53.93c-11.12 0-21.796-3.357-30.874-9.706a2.285 2.285 0 10-2.62 3.745C34.856 113.358 46.438 117 58.5 117c15.626 0 30.317-6.085 41.366-17.134C110.915 88.816 117 74.126 117 58.5c0-15.626-6.085-30.317-17.134-41.366C88.816 6.085 74.126 0 58.5 0 42.874 0 28.183 6.085 17.134 17.134 6.084 28.184 0 42.874 0 58.5c0 11.804 3.5 23.18 10.12 32.899z"/><path d="M71.305 58.266h6.935c-.646 11.069-6.047 12.896-10.172 13.271a2.285 2.285 0 00-2.078 2.276v12.795a2.285 2.285 0 002.413 2.281c9.16-.515 16.17-3.69 20.837-9.437 4.584-5.645 6.908-13.837 6.908-24.35V35.885c0-4.288-3.489-7.778-7.777-7.778H71.305c-4.29 0-7.778 3.49-7.778 7.779v14.602c0 4.29 3.49 7.778 7.778 7.778zm-3.208-22.38a3.211 3.211 0 013.208-3.208H88.37a3.211 3.211 0 013.207 3.207v19.217c0 9.437-1.98 16.66-5.886 21.468-3.47 4.274-8.436 6.755-15.132 7.548v-8.334c6.03-1.244 12.314-5.881 12.314-19.803a2.285 2.285 0 00-2.285-2.285h-9.284a3.211 3.211 0 01-3.208-3.208V35.885zM28.629 58.266h6.935c-.646 11.068-6.047 12.896-10.172 13.271a2.285 2.285 0 00-2.078 2.276v12.794a2.285 2.285 0 002.413 2.282c9.16-.516 16.17-3.69 20.837-9.438 4.584-5.644 6.908-13.837 6.908-24.35v-.79a2.285 2.285 0 00-4.57 0v.79c0 9.437-1.98 16.66-5.885 21.469-3.472 4.274-8.437 6.755-15.133 7.547v-8.334c6.03-1.243 12.314-5.88 12.314-19.802a2.285 2.285 0 00-2.285-2.285H28.63a3.211 3.211 0 01-3.208-3.208V35.885a3.211 3.211 0 013.208-3.208h17.066a3.211 3.211 0 013.207 3.208v1.248a2.285 2.285 0 004.57 0v-1.248c0-4.289-3.489-7.778-7.777-7.778H28.629c-4.289 0-7.778 3.49-7.778 7.778v14.603c0 4.289 3.49 7.778 7.778 7.778z"/></g></svg><svg fill="none" viewBox="0 0 80 80" id="umbrella" xmlns="http://www.w3.org/2000/svg"><g opacity=".3" fill="#fff"><path d="M71.116 23.362a1.081 1.081 0 01-.964-.59 36.957 36.957 0 00-1.65-2.878 1.079 1.079 0 01.34-1.49 1.083 1.083 0 011.49.34 39.002 39.002 0 011.746 3.045 1.081 1.081 0 01-.962 1.573zM74.94 39.644H5.06a1.08 1.08 0 01-1.081-1.082v-.378A36.023 36.023 0 0156.35 6.087a1.08 1.08 0 11-.983 1.924 33.867 33.867 0 00-49.22 29.47h67.704a33.561 33.561 0 00-.82-6.755 1.081 1.081 0 112.11-.478c.587 2.604.882 5.266.88 7.936v.378a1.08 1.08 0 01-1.081 1.082zM64.562 14.422a1.08 1.08 0 01-.756-.312 35.116 35.116 0 00-2.265-2.044 1.08 1.08 0 111.378-1.667 36.805 36.805 0 012.407 2.172 1.081 1.081 0 01-.757 1.85h-.007z"/><path d="M55.06 39.646H24.938a1.081 1.081 0 01-1.08-1.08v-.383c0-20.198 7.09-36.02 16.141-36.02 9.05 0 16.142 15.822 16.142 36.02v.382a1.08 1.08 0 01-1.081 1.081zm-29.037-2.162h27.952C53.815 19.438 47.48 4.324 40 4.324c-7.481 0-13.816 15.114-13.976 33.16z"/><path d="M33.539 77.838a7.549 7.549 0 01-7.541-7.542v-1.034a1.08 1.08 0 112.162 0v1.034a5.378 5.378 0 1010.757 0v-31.73a1.081 1.081 0 012.162 0v31.73a7.55 7.55 0 01-7.54 7.542zM59.366 70.627c-.239 0-.471-.08-.66-.226-.433-.332-10.507-8.191-10.507-14.772a7.19 7.19 0 017.014-7.337c1.505 0 2.966.502 4.153 1.426a6.758 6.758 0 014.154-1.426 7.189 7.189 0 017.014 7.337c0 6.582-10.078 14.44-10.507 14.772a1.08 1.08 0 01-.66.226zm-4.153-20.173a5.028 5.028 0 00-4.852 5.175c0 4.245 5.986 10.047 9.005 12.532 3.02-2.486 9.006-8.287 9.006-12.532a5.028 5.028 0 00-4.852-5.175 4.676 4.676 0 00-3.376 1.463 1.111 1.111 0 01-1.555 0 4.673 4.673 0 00-3.376-1.463zM20.18 64.865c-.24 0-.472-.079-.661-.225-.356-.275-8.707-6.79-8.707-12.29a6.1 6.1 0 015.955-6.22c1.228 0 2.424.393 3.412 1.122a5.747 5.747 0 013.412-1.122 6.1 6.1 0 015.956 6.22c0 5.5-8.351 12.015-8.707 12.29a1.074 1.074 0 01-.66.225zm-3.413-16.573a3.937 3.937 0 00-3.793 4.058c0 3.36 4.711 7.972 7.205 10.047 2.494-2.075 7.206-6.688 7.206-10.047a3.938 3.938 0 00-3.794-4.058 3.647 3.647 0 00-2.634 1.144 1.116 1.116 0 01-1.555 0 3.646 3.646 0 00-2.635-1.144z"/></g></svg></svg>