<svg width="80" height="80" viewBox="0 0 80 80" fill="none" xmlns="http://www.w3.org/2000/svg">
<path d="M73.3308 52.2594C73.2537 52.2596 73.1769 52.2513 73.1016 52.2345C72.9628 52.2045 72.8313 52.1474 72.7146 52.0666C72.5979 51.9857 72.4982 51.8827 72.4213 51.7633C72.3444 51.644 72.2918 51.5106 72.2664 51.3709C72.241 51.2312 72.2435 51.0879 72.2735 50.9491C72.4934 49.9288 72.6605 48.8979 72.774 47.8604C72.8077 47.5774 72.9517 47.3191 73.1749 47.1418C73.398 46.9644 73.6821 46.8824 73.9654 46.9134C74.2487 46.9445 74.5083 47.0862 74.6877 47.3077C74.8671 47.5292 74.9517 47.8125 74.9232 48.0961C74.7997 49.208 74.6193 50.3129 74.3827 51.4064C74.3307 51.6471 74.1981 51.8629 74.0069 52.018C73.8156 52.1731 73.5771 52.2583 73.3308 52.2594Z" fill="white"/>
<path d="M41.7193 77.8382C35.5576 77.8357 29.5165 76.1298 24.2636 72.909C19.0107 69.6882 14.7505 65.0779 11.9538 59.5874C9.15706 54.097 7.93268 47.9403 8.41595 41.7975C8.89922 35.6548 11.0713 29.7653 14.6923 24.7798C14.7927 24.642 14.9242 24.5299 15.0762 24.4527C15.2282 24.3755 15.3964 24.3353 15.5668 24.3354H26.1722C26.3608 24.3354 26.5462 24.3846 26.7098 24.4783C26.8735 24.572 27.0098 24.7068 27.1052 24.8695L33.1539 35.1992L39.1841 24.8706C39.2795 24.7076 39.4159 24.5724 39.5798 24.4785C39.7437 24.3846 39.9293 24.3353 40.1182 24.3354H67.8598C68.0298 24.3354 68.1973 24.3754 68.3489 24.4522C68.5005 24.529 68.6318 24.6405 68.7322 24.7776C71.9715 29.2156 74.0571 34.389 74.8014 39.8327C74.8206 39.9734 74.8119 40.1165 74.7757 40.2538C74.7396 40.3912 74.6768 40.52 74.5908 40.6331C74.5049 40.7461 74.3976 40.8411 74.2749 40.9126C74.1523 40.9842 74.0167 41.0309 73.876 41.05C73.7353 41.0692 73.5923 41.0605 73.4549 41.0243C73.3176 40.9882 73.1888 40.9254 73.0757 40.8395C72.9627 40.7535 72.8677 40.6462 72.7961 40.5235C72.7246 40.4009 72.6779 40.2653 72.6587 40.1246C71.9873 35.2218 70.1516 30.5511 67.3052 26.503H40.7398L34.0912 37.8911C33.9965 38.0551 33.8603 38.1914 33.6964 38.2863C33.5325 38.3811 33.3465 38.4313 33.1571 38.4317C32.9684 38.4316 32.783 38.3822 32.6194 38.2884C32.4557 38.1945 32.3194 38.0594 32.2241 37.8965L25.5539 26.4976H16.1236C11.6388 32.8785 9.70266 40.7061 10.6958 48.4419C11.689 56.1777 15.5396 63.2624 21.4908 68.3034C27.4421 73.3445 35.0636 75.9774 42.8574 75.6846C50.6512 75.3919 58.0538 72.1947 63.6101 66.7214C63.817 66.534 64.0884 66.434 64.3675 66.4422C64.6465 66.4504 64.9116 66.5662 65.1071 66.7654C65.3027 66.9646 65.4136 67.2318 65.4167 67.5109C65.4198 67.7901 65.3147 68.0596 65.1236 68.263C58.8914 74.4181 50.4786 77.8599 41.7193 77.8382Z" fill="white"/>
<path d="M69.3825 62.2378C69.1908 62.2377 69.0025 62.1865 68.8371 62.0897C68.6716 61.9928 68.5349 61.8537 68.441 61.6865C68.347 61.5194 68.2992 61.3303 68.3024 61.1386C68.3056 60.9469 68.3597 60.7595 68.4592 60.5957C68.9947 59.7222 69.4816 58.82 69.9176 57.8929C69.9763 57.7621 70.0604 57.6443 70.165 57.5463C70.2696 57.4483 70.3927 57.372 70.527 57.322C70.6614 57.272 70.8044 57.2493 70.9476 57.255C71.0909 57.2608 71.2315 57.295 71.3614 57.3557C71.4913 57.4163 71.6079 57.5022 71.7043 57.6083C71.8007 57.7144 71.875 57.8386 71.9229 57.9738C71.9709 58.1089 71.9915 58.2522 71.9835 58.3953C71.9755 58.5385 71.9392 58.6786 71.8765 58.8075C71.4081 59.8088 70.8844 60.7833 70.3079 61.7265C70.2103 61.8838 70.074 62.0135 69.912 62.103C69.7499 62.1925 69.5676 62.239 69.3825 62.2378Z" fill="white"/>
<path d="M27.1578 65.8376C26.9679 65.8375 26.7814 65.7872 26.6173 65.6916C20.7412 62.2647 16.4354 56.6789 14.6173 50.1241C14.5782 49.9865 14.5668 49.8425 14.5838 49.7005C14.6008 49.5585 14.6458 49.4213 14.7162 49.2968C14.7865 49.1723 14.8809 49.063 14.9939 48.9753C15.1068 48.8875 15.236 48.823 15.374 48.7856C15.512 48.7481 15.6561 48.7384 15.7979 48.757C15.9397 48.7756 16.0764 48.8221 16.2 48.8939C16.3237 48.9657 16.4319 49.0614 16.5184 49.1753C16.6049 49.2892 16.6678 49.4191 16.7037 49.5576C18.3687 55.5661 22.3147 60.6866 27.7005 63.8278C27.9055 63.9473 28.0655 64.1309 28.1559 64.3503C28.2462 64.5698 28.2618 64.8128 28.2004 65.042C28.1389 65.2712 28.0037 65.4738 27.8157 65.6185C27.6277 65.7633 27.3972 65.8421 27.16 65.843L27.1578 65.8376Z" fill="white"/>
<path d="M47.1199 56.9601C46.1145 56.9625 45.1348 56.6428 44.3243 56.048C43.5138 55.4531 42.9151 54.6143 42.616 53.6545C42.3168 52.6946 42.3329 51.6642 42.6619 50.7142C42.9909 49.7642 43.6155 48.9445 44.4442 48.3752C45.0517 47.9583 45.7486 47.6899 46.4787 47.5915C47.2089 47.4931 47.952 47.5675 48.6482 47.8088C49.3443 48.05 49.9741 48.4514 50.4868 48.9805C50.9995 49.5096 51.3808 50.1517 51.6 50.8551C51.8192 51.5586 51.8702 52.3036 51.7489 53.0303C51.6275 53.757 51.3372 54.4451 50.9014 55.0391C50.4655 55.6332 49.8963 56.1166 49.2395 56.4504C48.5827 56.7842 47.8567 56.9592 47.1199 56.9612V56.9601ZM47.1048 49.7071C46.5918 49.7079 46.0912 49.8643 45.6691 50.1558C45.1764 50.4985 44.8228 51.0062 44.6722 51.5872C44.5216 52.1681 44.584 52.7837 44.8481 53.3226C45.1122 53.8614 45.5605 54.2879 46.1119 54.5248C46.6632 54.7617 47.2812 54.7933 47.8539 54.6139C48.4266 54.4345 48.9161 54.056 49.2338 53.5469C49.5514 53.0378 49.6763 52.4317 49.5858 51.8385C49.4952 51.2452 49.1952 50.704 48.7401 50.3129C48.285 49.9217 47.7049 49.7064 47.1048 49.7061V49.7071Z" fill="white"/>
<path d="M57.6013 61.6941C57.3112 61.6939 57.0218 61.6675 56.7364 61.6152C55.8212 61.4454 54.9769 61.008 54.3102 60.3584C53.6435 59.7087 53.1844 58.876 52.991 57.9655C52.7975 57.055 52.8784 56.1075 53.2233 55.2429C53.5682 54.3783 54.1618 53.6355 54.9289 53.1082C55.5364 52.6912 56.2333 52.4227 56.9635 52.3244C57.6937 52.226 58.4369 52.3004 59.1331 52.5418C59.8292 52.7831 60.459 53.1845 60.9717 53.7137C61.4844 54.2429 61.8657 54.8851 62.0848 55.5886C62.304 56.2921 62.3549 57.0372 62.2334 57.7639C62.112 58.4907 61.8215 59.1787 61.3856 59.7727C60.9496 60.3667 60.3802 60.85 59.7233 61.1838C59.0664 61.5175 58.3403 61.6923 57.6035 61.6941H57.6013ZM57.5872 54.4422C57.074 54.4424 56.573 54.5985 56.1505 54.8898C55.6522 55.2339 55.2938 55.7453 55.1403 56.331C54.9867 56.9168 55.0482 57.5381 55.3135 58.0825C55.5789 58.6268 56.0305 59.058 56.5865 59.2978C57.1425 59.5377 57.7661 59.5703 58.3441 59.3898C58.9221 59.2093 59.4163 58.8277 59.737 58.314C60.0578 57.8004 60.1838 57.1888 60.0922 56.5902C60.0007 55.9917 59.6976 55.4457 59.238 55.0514C58.7785 54.6571 58.1928 54.4406 57.5872 54.4411V54.4422Z" fill="white"/>
<path d="M47.7836 68.4421C46.7783 68.4441 45.7988 68.1242 44.9885 67.5292C44.1782 66.9342 43.5796 66.0953 43.2805 65.1356C42.9814 64.1758 42.9975 63.1455 43.3263 62.1955C43.6552 61.2455 44.2795 60.4257 45.1079 59.8562C45.7154 59.4393 46.4123 59.1708 47.1425 59.0724C47.8726 58.974 48.6157 59.0485 49.3119 59.2897C50.008 59.531 50.6378 59.9323 51.1505 60.4614C51.6632 60.9906 52.0445 61.6327 52.2637 62.3361C52.483 63.0395 52.5339 63.7846 52.4126 64.5113C52.2912 65.238 52.001 65.9261 51.5651 66.5201C51.1293 67.1141 50.56 67.5975 49.9032 67.9314C49.2464 68.2652 48.5204 68.4401 47.7836 68.4421ZM47.7728 61.1892C47.2592 61.1887 46.7576 61.3449 46.335 61.6367C45.8331 61.9817 45.4716 62.4951 45.316 63.0838C45.1604 63.6726 45.2211 64.2976 45.487 64.8454C45.753 65.3933 46.2066 65.8275 46.7654 66.0695C47.3242 66.3114 47.9513 66.3449 48.5328 66.1639C49.1142 65.9829 49.6115 65.5994 49.9343 65.0831C50.2571 64.5667 50.384 63.9517 50.2921 63.3497C50.2001 62.7478 49.8953 62.1987 49.4331 61.8023C48.9708 61.4058 48.3818 61.1883 47.7728 61.1892Z" fill="white"/>
<path d="M20.4627 26.4952C20.2086 26.495 19.9627 26.4052 19.7682 26.2417C19.5736 26.0782 19.4429 25.8514 19.3989 25.6012L17.4714 14.6152C17.4422 14.4736 17.4418 14.3275 17.4702 14.1858C17.4985 14.044 17.555 13.9093 17.6362 13.7897C17.7175 13.6701 17.822 13.5681 17.9434 13.4896C18.0648 13.4111 18.2008 13.3577 18.3432 13.3327C18.4856 13.3077 18.6316 13.3115 18.7725 13.3439C18.9134 13.3763 19.0464 13.4366 19.1636 13.5213C19.2808 13.606 19.3798 13.7134 19.4547 13.837C19.5297 13.9607 19.5791 14.0981 19.6 14.2412L21.5287 25.2271C21.5532 25.3669 21.55 25.5103 21.5192 25.6489C21.4884 25.7875 21.4306 25.9186 21.3491 26.0349C21.2675 26.1511 21.1639 26.2502 21.0441 26.3264C20.9243 26.4026 20.7907 26.4544 20.6508 26.479C20.5887 26.4897 20.5258 26.4951 20.4627 26.4952Z" fill="white"/>
<path d="M5.95557 17.6143C5.75225 17.6143 5.55305 17.557 5.38085 17.4489C5.20864 17.3408 5.07041 17.1863 4.98202 17.0032C4.89363 16.8201 4.85866 16.6158 4.88114 16.4137C4.90362 16.2116 4.98262 16.02 5.10909 15.8608L15.6518 2.57107C15.8181 2.36194 16.0559 2.2218 16.3194 2.17769C16.583 2.13357 16.8535 2.18859 17.0788 2.33215L31.3837 11.45C31.5678 11.5675 31.712 11.7381 31.7973 11.9392C31.8826 12.1404 31.9049 12.3626 31.8614 12.5767C31.8178 12.7908 31.7104 12.9866 31.5534 13.1385C31.3963 13.2903 31.1969 13.391 30.9815 13.4273L6.13503 17.5992C6.07579 17.6096 6.01573 17.6146 5.95557 17.6143ZM16.7394 4.67918L8.55125 15.0013L27.8496 11.7581L16.7394 4.67918Z" fill="white"/>
<path d="M49.8865 26.4949C49.7969 26.4948 49.7076 26.4839 49.6205 26.4625C49.4828 26.4278 49.3532 26.3663 49.2393 26.2814C49.1253 26.1966 49.0292 26.0902 48.9564 25.9682C48.8836 25.8462 48.8356 25.7111 48.8151 25.5705C48.7945 25.4299 48.8019 25.2867 48.8368 25.149L52.72 9.77386C52.7662 9.59028 52.8599 9.42205 52.9915 9.28602C53.1232 9.14999 53.2883 9.05092 53.4703 8.99872L64.9632 5.70467C65.0997 5.66556 65.2426 5.65371 65.3837 5.66982C65.5248 5.68592 65.6613 5.72965 65.7855 5.79852C65.9097 5.86738 66.0191 5.96003 66.1074 6.07118C66.1958 6.18232 66.2614 6.30979 66.3005 6.44629C66.3396 6.5828 66.3515 6.72567 66.3354 6.86675C66.3193 7.00783 66.2756 7.14436 66.2067 7.26854C66.1378 7.39271 66.0452 7.50211 65.934 7.59049C65.8229 7.67886 65.6954 7.74448 65.5589 7.78359L54.6638 10.9058L50.933 25.6776C50.8743 25.9109 50.7395 26.1179 50.55 26.2659C50.3605 26.4139 50.127 26.4945 49.8865 26.4949Z" fill="white"/>
</svg>
