<svg width="123" height="123" viewBox="0 0 123 123" fill="none" xmlns="http://www.w3.org/2000/svg">
<circle cx="61.5" cy="61.5" r="52.5" stroke="white" stroke-opacity="0.1" stroke-width="18"/>
<path fill-rule="evenodd" clip-rule="evenodd" d="M105.192 96.0502C112.841 86.3484 117 74.3541 117 62H112C112 89.6142 89.6142 112 62 112C34.3858 112 12 89.6141 12 61.9999C12 34.3857 34.3858 11.9999 62 11.9999C72.9844 11.9999 83.1415 15.542 91.3914 21.5463L94.3282 17.5041C84.3336 10.2426 72.1853 6.55741 59.8408 7.04243C47.4963 7.52745 35.6745 12.1544 26.2804 20.1777C16.8863 28.201 10.467 39.1534 8.05688 51.2701C5.64673 63.3867 7.3861 75.962 12.9947 86.9695C18.6033 97.977 27.7546 106.776 38.9738 111.948C50.193 117.12 62.8269 118.364 74.8396 115.48C86.8523 112.596 97.5442 105.752 105.192 96.0502Z" fill="#8AAEE6"/>
</svg>
