<svg width="123" height="123" viewBox="0 0 123 123" fill="none" xmlns="http://www.w3.org/2000/svg">
<circle cx="61.5" cy="61.5" r="52.5" stroke="white" stroke-opacity="0.1" stroke-width="18"/>
<path fill-rule="evenodd" clip-rule="evenodd" d="M103.822 97.7197C112.327 87.7617 117 75.0957 117 62.0001H112C112 89.6143 89.6141 112 61.9999 112C34.3857 112 11.9999 89.6142 11.9999 62C11.9999 34.3857 34.3857 12 61.9999 12C78.6299 12 93.3636 20.1187 102.454 32.6087L106.496 29.6719C98.7985 19.0773 87.5733 11.5769 74.8395 8.51973C62.1057 5.4626 48.6989 7.04941 37.0305 12.9947C25.3622 18.94 16.1981 28.8537 11.1866 40.9525C6.17514 53.0513 5.64512 66.5413 9.6919 78.996C13.7387 91.4507 22.0967 102.053 33.2626 108.895C44.4285 115.738 57.6695 118.372 70.6039 116.323C83.5383 114.274 95.3174 107.678 103.822 97.7197Z" fill="#8AAEE6"/>
</svg>
