<svg width="123" height="123" viewBox="0 0 123 123" fill="none" xmlns="http://www.w3.org/2000/svg">
<circle cx="61.5" cy="61.5" r="52.5" stroke="white" stroke-opacity="0.1" stroke-width="18"/>
<path fill-rule="evenodd" clip-rule="evenodd" d="M107.731 92.5564C113.774 83.5117 117 72.878 117 62H112C112 89.6142 89.6141 112 61.9999 112C34.3857 112 11.9999 89.6141 11.9999 61.9999C11.9999 34.3856 34.3857 11.9999 61.9999 11.9999C62 11.9999 62 11.9999 62 11.9999V7C51.1221 7 40.4884 10.2257 31.4437 16.2692C22.399 22.3126 15.3495 30.9025 11.1867 40.9524C7.02383 51.0023 5.93465 62.061 8.05683 72.73C10.179 83.3989 15.4173 93.199 23.1092 100.891C30.801 108.583 40.6011 113.821 51.2701 115.943C61.939 118.065 72.9977 116.976 83.0476 112.813C93.0976 108.651 101.687 101.601 107.731 92.5564Z" fill="#8AAEE6"/>
</svg>
