<svg width="123" height="123" viewBox="0 0 123 123" fill="none" xmlns="http://www.w3.org/2000/svg">
<circle cx="61.5" cy="61.5" r="52.5" stroke="white" stroke-opacity="0.1" stroke-width="18"/>
<path fill-rule="evenodd" clip-rule="evenodd" d="M102.388 99.3341C111.782 89.1711 117 75.8399 117 62H112C112 89.6142 89.6142 112 62 112C34.3858 112 12 89.6141 12 61.9999C12 34.3857 34.3858 11.9999 62 11.9999C84.2205 11.9999 103.056 26.4948 109.566 46.545L114.308 45.0041C110.031 31.8416 100.95 20.7752 88.8743 14.0127C76.799 7.25027 62.6181 5.28882 49.1606 8.51968C35.7031 11.7505 23.9583 19.9362 16.2693 31.4437C8.58021 42.9511 5.51218 56.9344 7.67722 70.6039C9.84226 84.2734 17.0812 96.6243 27.9499 105.192C38.8186 113.761 52.5181 117.916 66.3153 116.83C80.1126 115.745 92.9933 109.497 102.388 99.3341Z" fill="#8AAEE6"/>
</svg>
