<svg width="417" height="417" viewBox="0 0 417 417" fill="none" xmlns="http://www.w3.org/2000/svg">
<g opacity="0.3">
<circle opacity="0.1" cx="208.584" cy="208.584" r="32.4088" stroke="white" stroke-width="2"/>
<path opacity="0.1" d="M287.295 245.022C292.432 233.944 295.299 221.599 295.299 208.584C295.299 160.692 256.476 121.869 208.584 121.869C160.692 121.869 121.869 160.692 121.869 208.584C121.869 256.475 160.692 295.299 208.584 295.299C228.648 295.299 247.12 288.485 261.813 277.045" stroke="white" stroke-width="5"/>
<path opacity="0.1" d="M114.479 103.551C139.439 81.173 172.422 67.5621 208.584 67.5621C286.468 67.5621 349.606 130.7 349.606 208.584C349.606 286.468 286.468 349.606 208.584 349.606C130.7 349.606 67.562 286.468 67.562 208.584C67.562 175.193 79.1673 144.512 98.5644 120.355" stroke="white" stroke-width="10"/>
<circle opacity="0.1" cx="208.146" cy="209.022" r="163.358" stroke="white" stroke-width="5"/>
<path opacity="0.1" d="M42.9066 321.689C20.882 289.489 8 250.541 8 208.584C8 127.708 55.8652 58.0113 124.813 26.2771M69.146 352.775C105.24 387.686 154.403 409.168 208.584 409.168C319.363 409.168 409.168 319.363 409.168 208.584C409.168 97.8045 319.363 8 208.584 8C184.55 8 161.503 12.2271 140.146 19.9783" stroke="white" stroke-width="15"/>
</g>
</svg>
