<svg width="45" height="45" viewBox="0 0 45 45" fill="none" xmlns="http://www.w3.org/2000/svg">
<g clip-path="url(#clip0)">
<path d="M42.3633 3.86719H39.3527V2.98828C39.3527 1.34068 38.012 0 36.3644 0C34.7165 0 33.3761 1.34068 33.3761 2.98828V3.86719H25.477V2.98828C25.477 1.34068 24.1366 0 22.4887 0C20.8411 0 19.5004 1.34068 19.5004 2.98828V3.86719H11.6016V2.98828C11.6016 1.34068 10.2609 0 8.61328 0C6.96568 0 5.625 1.34068 5.625 2.98828V3.86719H2.63672C1.18275 3.86719 0 5.04993 0 6.50391V42.3585C0 43.8124 1.18275 44.9952 2.63672 44.9952H18.9957C19.4808 44.9952 19.8746 44.6017 19.8746 44.1163C19.8746 43.6312 19.4808 43.2374 18.9957 43.2374H2.63672C2.15195 43.2374 1.75781 42.8432 1.75781 42.3585V16.3477H37.0898C37.5753 16.3477 37.9688 15.9542 37.9688 15.4688C37.9688 14.9833 37.5753 14.5898 37.0898 14.5898H1.75781V6.50391C1.75781 6.01913 2.15195 5.625 2.63672 5.625H5.625V8.62804C5.625 10.2757 6.96568 11.6163 8.61328 11.6163C10.2609 11.6163 11.6016 10.2757 11.6016 8.62804C11.6016 8.14259 11.2081 7.74914 10.7227 7.74914C10.2372 7.74914 9.84375 8.14259 9.84375 8.62804C9.84375 9.30645 9.29169 9.85851 8.61328 9.85851C7.93488 9.85851 7.38281 9.30645 7.38281 8.62804V5.625H19.5004V8.62804C19.5004 10.2757 20.8411 11.6163 22.4887 11.6163C24.1366 11.6163 25.477 10.2757 25.477 8.62804C25.477 8.14259 25.0835 7.74914 24.598 7.74914C24.1129 7.74914 23.7191 8.14259 23.7191 8.62804C23.7191 9.30645 23.1674 9.85851 22.4887 9.85851C21.8103 9.85851 21.2582 9.30645 21.2582 8.62804V5.625H33.3761V8.62804C33.3761 10.2757 34.7165 11.6163 36.3644 11.6163C38.012 11.6163 39.3527 10.2757 39.3527 8.62804C39.3527 8.14259 38.9592 7.74914 38.4738 7.74914C37.9883 7.74914 37.5949 8.14259 37.5949 8.62804C37.5949 9.30645 37.0428 9.85851 36.3644 9.85851C35.686 9.85851 35.1339 9.30645 35.1339 8.62804V5.625H42.3633C42.8481 5.625 43.2422 6.01913 43.2422 6.50391V42.3585C43.2422 42.8432 42.8481 43.2374 42.3633 43.2374H26.027C25.5415 43.2374 25.148 43.6312 25.148 44.1163C25.148 44.6017 25.5415 44.9952 26.027 44.9952H42.3633C43.8173 44.9952 45 43.8124 45 42.3585V6.50391C45 5.04993 43.8173 3.86719 42.3633 3.86719ZM7.38281 2.98828C7.38281 2.30988 7.93488 1.75781 8.61328 1.75781C9.29169 1.75781 9.84375 2.30988 9.84375 2.98828V3.86719H7.38281V2.98828ZM21.2582 2.98828C21.2582 2.30988 21.8103 1.75781 22.4887 1.75781C23.1674 1.75781 23.7191 2.30988 23.7191 2.98828V3.86719H21.2582V2.98828ZM35.1339 2.98828C35.1339 2.30988 35.686 1.75781 36.3644 1.75781C37.0428 1.75781 37.5949 2.30988 37.5949 2.98828V3.86719H35.1339V2.98828Z" fill="white"/>
<path d="M31.6406 29.5268C31.6406 24.4381 27.5008 20.2983 22.4121 20.2983C17.3234 20.2983 13.1836 24.4381 13.1836 29.5268C13.1836 34.6152 17.3234 38.7553 22.4121 38.7553C27.5008 38.7553 31.6406 34.6152 31.6406 29.5268ZM14.9414 29.5268C14.9414 25.4073 18.2929 22.0561 22.4121 22.0561C26.5313 22.0561 29.8828 25.4073 29.8828 29.5268C29.8828 33.646 26.5313 36.9975 22.4121 36.9975C18.2929 36.9975 14.9414 33.646 14.9414 29.5268Z" fill="white"/>
<path d="M22.2869 30.7952V24.5001C22.2869 24.2239 21.9988 24 21.6434 24C21.288 24 21 24.2239 21 24.5001V31.0023C21 31.1349 21.0678 31.2621 21.1885 31.3559L24.4058 33.8567C24.6577 34.049 25.0619 34.0476 25.3116 33.8535C25.5612 33.6595 25.563 33.3453 25.3156 33.1495L22.2869 30.7952Z" fill="white"/>
</g>
<defs>
<clipPath id="clip0">
<rect width="45" height="45" fill="white"/>
</clipPath>
</defs>
</svg>
