<svg width="40" height="40" viewBox="0 0 40 40" fill="none" xmlns="http://www.w3.org/2000/svg">
<path d="M19.7433 0C22.3901 0 24.8759 0.498442 27.2007 1.49533C29.5256 2.49221 31.5822 3.91633 33.3705 5.76769C35.1589 7.58344 36.5538 9.73743 37.5553 12.2296C38.5925 14.6862 39.1111 17.3921 39.1111 20.3471C39.1111 20.9524 39.0575 21.7891 38.9502 22.8571C38.8786 23.8896 38.6998 24.9933 38.4137 26.1682C38.1275 27.3075 37.6983 28.4112 37.126 29.4793C36.5895 30.5118 35.8384 31.3663 34.8727 32.0427C33.9428 32.7192 32.7804 33.0574 31.3855 33.0574C30.2052 33.0574 29.311 32.826 28.7029 32.3632C28.1307 31.9003 27.7372 31.2773 27.5226 30.494C27.308 29.7107 27.1471 28.8741 27.0398 27.984C26.0741 29.0165 24.7865 29.9065 23.177 30.6542C21.6032 31.4019 19.8864 31.7757 18.0265 31.7757C15.5586 31.7757 13.6093 31.117 12.1786 29.7997C10.748 28.4824 10.0326 26.8091 10.0326 24.7797C10.0326 22.9996 10.5334 21.611 11.5348 20.6142C12.5363 19.5817 13.7881 18.8518 15.2904 18.4246C16.7926 17.9973 18.3305 17.7837 19.9043 17.7837C21.478 17.7837 22.8908 17.9439 24.1427 18.2644C25.3945 18.5492 26.3066 18.7984 26.8788 19.012C26.8788 17.2319 26.6821 15.6653 26.2887 14.3124C25.8952 12.9239 25.1978 11.838 24.1963 11.0547C23.2306 10.2715 21.8536 9.87984 20.0652 9.87984C18.7061 9.87984 17.3648 10.1113 16.0415 10.5741C14.7538 11.0369 13.5735 11.66 12.5005 12.4433L11.6421 10.7877C12.894 9.93324 14.2352 9.25679 15.6659 8.75835C17.1323 8.2599 18.6703 8.01068 20.2798 8.01068C22.1755 8.01068 23.6956 8.33111 24.8401 8.97196C25.9847 9.61282 26.8252 10.4673 27.3617 11.5354C27.934 12.5679 28.3095 13.725 28.4883 15.0067C28.7029 16.2884 28.8102 17.5879 28.8102 18.9052V26.275C28.8102 27.8416 28.9712 29.0877 29.2931 30.0134C29.615 30.939 30.384 31.4019 31.6001 31.4019C32.7446 31.4019 33.6924 31.028 34.4435 30.2804C35.2304 29.5327 35.8384 28.5714 36.2676 27.3965C36.7326 26.2216 37.0545 24.9933 37.2334 23.7116C37.4122 22.4299 37.5016 21.2906 37.5016 20.2937C37.5016 17.6591 37.0366 15.2203 36.1067 12.9773C35.2125 10.6987 33.9428 8.70494 32.2975 6.996C30.688 5.28705 28.8102 3.95194 26.6642 2.99065C24.5182 2.02937 22.1934 1.54873 19.6897 1.54873C17.2575 1.54873 14.9506 2.01157 12.7688 2.93725C10.6228 3.82733 8.70924 5.09123 7.0282 6.72897C5.34715 8.36671 4.02378 10.3071 3.05807 12.5501C2.09236 14.7931 1.60951 17.2497 1.60951 19.9199C1.60951 22.4833 2.0566 24.8865 2.95077 27.1295C3.88071 29.3725 5.15043 31.3307 6.75995 33.004C8.40522 34.713 10.3009 36.0481 12.4469 37.0093C14.6287 37.9706 16.9714 38.4513 19.4751 38.4513C20.9415 38.4513 22.3543 38.2733 23.7135 37.9172C25.0726 37.5968 26.396 37.0984 27.6836 36.4219L28.3274 37.8638C26.8967 38.5759 25.4303 39.1099 23.9281 39.466C22.4616 39.822 20.9773 40 19.4751 40C16.7926 40 14.271 39.4838 11.9104 38.4513C9.58553 37.4544 7.52893 36.0481 5.74059 34.2323C3.95224 32.4166 2.53945 30.2982 1.50221 27.8772C0.500737 25.4206 0 22.7681 0 19.9199C0 16.9292 0.536504 14.2234 1.60951 11.8024C2.68252 9.34579 4.14896 7.24522 6.00884 5.50067C7.86872 3.72052 9.97897 2.3676 12.3396 1.44192C14.7002 0.48064 17.1681 0 19.7433 0ZM23.177 28.785C24.7865 28.0374 25.7879 27.1473 26.1814 26.1148C26.6106 25.0467 26.8252 23.9964 26.8252 22.964V20.721C26.396 20.6854 25.5555 20.4717 24.3036 20.0801C23.0875 19.6885 21.5674 19.4927 19.7433 19.4927C18.42 19.4927 17.1681 19.6529 15.9878 19.9733C14.8075 20.2581 13.8418 20.7922 13.0907 21.5754C12.3754 22.3231 12.0177 23.3556 12.0177 24.6729C12.0177 26.3106 12.6078 27.6101 13.7881 28.5714C14.9685 29.4971 16.417 29.9599 18.1338 29.9599C19.028 29.9599 19.9222 29.8531 20.8163 29.6395C21.7463 29.3903 22.5332 29.1055 23.177 28.785Z" fill="white"/>
</svg>
