<svg width="31" height="45" viewBox="0 0 31 45" fill="none" xmlns="http://www.w3.org/2000/svg">
<path d="M15.5004 0C7.46936 0 0.935547 6.53382 0.935547 14.5649C0.935547 21.7469 5.91718 31.1609 10.0963 37.7934C10.3659 38.2214 10.9312 38.3497 11.3593 38.08C11.7871 37.8105 11.9154 37.245 11.6458 36.8172C4.30746 25.1702 2.76718 18.2877 2.76718 14.5649C2.76718 7.54373 8.47927 1.83148 15.5006 1.83148C22.5219 1.83148 28.234 7.54357 28.234 14.5649C28.234 25.9671 14.9105 43.3503 14.7759 43.5244C14.4668 43.9248 14.5406 44.4999 14.9409 44.8089C15.1076 44.9377 15.3046 45 15.5001 45C15.7739 45 16.045 44.8776 16.2254 44.6441C16.7905 43.9127 30.0656 26.5922 30.0656 14.5647C30.0653 6.53382 23.5316 0 15.5004 0Z" fill="white"/>
<path d="M15.5012 9.92053C16.0068 9.92053 16.4169 9.51043 16.4169 9.00479C16.4169 8.49915 16.0068 8.08905 15.5012 8.08905C11.9304 8.08905 9.02539 10.9941 9.02539 14.5649C9.02539 18.1357 11.9304 21.0407 15.5012 21.0407C19.072 21.0407 21.977 18.1357 21.977 14.5649C21.977 13.1388 21.5224 11.7859 20.6619 10.6524C20.3562 10.2496 19.7817 10.171 19.3788 10.4767C18.976 10.7824 18.8972 11.3569 19.2031 11.7598C19.8197 12.5719 20.1455 13.542 20.1455 14.5649C20.1455 17.1257 18.0621 19.2092 15.5012 19.2092C12.9403 19.2092 10.8569 17.1257 10.8569 14.5649C10.8569 12.004 12.9405 9.92053 15.5012 9.92053Z" fill="white"/>
</svg>
