<svg width="37" height="45" viewBox="0 0 37 45" fill="none" xmlns="http://www.w3.org/2000/svg">
<path d="M35.6902 37.186C34.9469 34.8637 33.2746 30.2035 32.2645 29.1886C31.1213 28.0399 27.5627 25.6236 23.8741 25.2747V25.1844C24.0001 25.1017 24.1247 25.0172 24.2466 24.928C25.6023 23.9341 26.7006 22.5134 27.5109 20.7055C28.661 18.1405 29.244 14.8051 29.244 10.7927C29.244 4.84154 24.4234 0 18.4983 0C16.735 0 14.9861 0.438423 13.4401 1.26823C13.0127 1.49792 12.852 2.03075 13.0814 2.45853C13.311 2.88597 13.8439 3.04665 14.2717 2.81731C15.5626 2.12414 17.0241 1.75781 18.4983 1.75781C23.3347 1.75781 27.2905 5.61779 27.4786 10.4343C25.5653 10.0611 23.6478 8.86047 22.1011 7.03983C21.9363 6.84586 21.6953 6.7329 21.4409 6.73016C21.1893 6.72672 20.9431 6.83487 20.7742 7.02507C19.5036 8.45467 17.1827 9.75861 14.7173 10.4274C12.5207 11.0234 10.5868 10.9884 9.52213 10.3553C9.58736 9.00433 9.95266 7.67841 10.5902 6.49567C10.8202 6.06823 10.6606 5.53505 10.2335 5.30502C9.80606 5.07465 9.27288 5.2343 9.04285 5.66174C8.20308 7.21973 7.75745 8.98441 7.75333 10.7663C7.75333 10.7673 7.75333 10.7683 7.75333 10.769C7.75333 10.7769 7.75299 10.7848 7.75299 10.7927C7.75299 14.8051 8.33595 18.1405 9.48574 20.7055C10.2963 22.5134 11.3946 23.9341 12.7501 24.928C12.8719 25.0172 12.9966 25.1017 13.1226 25.1844V25.2744C9.4339 25.6236 5.87536 28.0395 4.73209 29.1883C3.72238 30.2031 2.04971 34.8634 1.30676 37.186C0.77461 38.8487 0.648267 41.2317 1.89007 42.9329C2.89119 44.3044 4.55288 45 6.82876 45H21.3788C21.8642 45 22.2577 44.6066 22.2577 44.1211C22.2577 43.6356 21.8642 43.2422 21.3788 43.2422H6.82876C5.14579 43.2422 3.96167 42.7893 3.30971 41.8964C2.45552 40.726 2.59868 38.916 2.9808 37.7216C4.28131 33.6583 5.57838 30.83 5.97801 30.4284C7.03098 29.3706 10.1562 27.3879 13.1308 27.0415C13.2825 30.7967 15.6319 33.7902 18.4983 33.7902C21.3647 33.7902 23.7141 30.7967 23.8658 27.0415C26.8404 27.3879 29.9656 29.3702 31.0186 30.4284C31.4182 30.83 32.7156 33.6583 34.0158 37.7216C34.3979 38.916 34.5411 40.726 33.6869 41.8964C33.0349 42.7893 31.8512 43.2422 30.1678 43.2422H27.4401C26.955 43.2422 26.5612 43.6356 26.5612 44.1211C26.5612 44.6066 26.955 45 27.4401 45H30.1678C32.4437 45 34.1054 44.3044 35.1065 42.9329C36.3483 41.2317 36.2223 38.8487 35.6902 37.186ZM11.0897 19.9865C10.1834 17.9644 9.66427 15.3757 9.54033 12.2783C10.2057 12.5004 10.9727 12.6137 11.8196 12.6137C12.8376 12.6137 13.9706 12.4516 15.1777 12.1241C17.5676 11.4756 19.8613 10.2698 21.4011 8.88107C23.1754 10.7014 25.3133 11.8769 27.4594 12.2151C27.228 18.3115 25.3864 24.9139 18.4983 24.9139C16.9722 24.9139 15.6508 24.607 14.5223 23.9862C14.4674 23.9454 14.4076 23.9104 14.3438 23.8832C12.9708 23.0723 11.8931 21.7787 11.0897 19.9865ZM22.1162 26.6545C22.1162 29.5694 20.4594 32.0324 18.4983 32.0324C16.5372 32.0324 14.8804 29.5694 14.8804 26.6545V26.0654C15.9752 26.4674 17.1841 26.6717 18.4983 26.6717C19.8125 26.6717 21.0214 26.4674 22.1162 26.0654V26.6545Z" fill="white"/>
<path d="M14.8557 15.3304C15.2416 15.3304 15.5808 15.5906 15.6807 15.9635C15.7857 16.3562 16.1407 16.6151 16.529 16.6151C16.6042 16.6151 16.6808 16.6055 16.757 16.5849C17.226 16.4596 17.5041 15.9775 17.3784 15.5086C17.0732 14.3687 16.0357 13.5726 14.8557 13.5726C13.6757 13.5726 12.6385 14.3687 12.3329 15.5086C12.2073 15.9775 12.4854 16.4596 12.9543 16.5849C13.423 16.7105 13.9053 16.4324 14.0307 15.9635C14.1306 15.5906 14.4698 15.3304 14.8557 15.3304Z" fill="white"/>
<path d="M20.2398 16.5849C20.7088 16.7105 21.1905 16.4321 21.3161 15.9635C21.416 15.5906 21.7552 15.3304 22.1411 15.3304C22.5267 15.3304 22.8659 15.5906 22.9658 15.9635C23.0712 16.3562 23.4262 16.6151 23.8142 16.6151C23.8893 16.6151 23.9662 16.6055 24.0421 16.5849C24.5111 16.4596 24.7895 15.9775 24.6639 15.5086C24.3583 14.3687 23.3208 13.5726 22.1411 13.5726C20.9611 13.5726 19.9236 14.3687 19.6181 15.5086C19.4924 15.9775 19.7708 16.4592 20.2398 16.5849Z" fill="white"/>
<path d="M16.6227 19.7579C16.3796 19.3373 15.8423 19.1935 15.4221 19.4362C15.0015 19.6789 14.8576 20.2162 15.1004 20.6368C15.7987 21.8467 17.1006 22.5982 18.4979 22.5982C19.8949 22.5982 21.1964 21.8467 21.8951 20.6368C22.1378 20.2166 21.994 19.6789 21.5734 19.4362C21.1528 19.1935 20.6155 19.3377 20.3728 19.7579C19.9872 20.4256 19.2687 20.8404 18.4979 20.8404C17.7265 20.8404 17.0082 20.4256 16.6227 19.7579Z" fill="white"/>
</svg>
