<svg width="40" height="40" viewBox="0 0 40 40" fill="none" xmlns="http://www.w3.org/2000/svg">
<path d="M11.1817 28.8192C11.782 29.4195 12.3976 29.9995 13.0274 30.5589C13.5871 31.0559 14.1581 31.5366 14.7396 32.0005C19.504 35.8009 24.9786 38.4754 30.7967 39.8181C33.9986 40.5573 37.2216 39.0027 38.6676 36.1114L39.5919 34.2623C40.4992 32.4484 39.8474 30.2093 38.1076 29.1653L32.2198 25.6331C30.3685 24.522 27.9711 25.1207 26.8608 26.9729L25.8379 28.6764C25.6395 29.0069 25.2357 29.143 24.8775 28.9995C18.7632 26.5542 13.4461 21.2373 11.001 15.1237C10.8576 14.7657 10.9937 14.362 11.3245 14.1636C13.6582 12.7622 12.8534 13.2453 13.0274 13.141C14.8792 12.0307 15.4792 9.63355 14.3677 7.78203L10.8353 1.89392C9.79129 0.1541 7.5525 -0.498066 5.73852 0.409534L3.88883 1.33392C0.973466 2.79176 -0.550594 6.02848 0.182444 9.20477C1.87313 16.5318 5.67687 23.3144 11.1817 28.8192ZM31.4156 26.9729L37.3034 30.505C38.3474 31.1315 38.7387 32.4749 38.1939 33.5635L37.7838 34.3844L27.8227 28.406L28.2006 27.7764C28.8668 26.6655 30.3045 26.306 31.4156 26.9729ZM4.58769 2.73133L6.43738 1.80695C7.5348 1.25793 8.87422 1.6629 9.49526 2.69776L13.0277 8.58587C13.6942 9.69611 13.3356 11.1341 12.2233 11.8009L11.5928 12.1796L8.05543 6.28086C7.83357 5.91098 7.35383 5.79074 6.98365 6.01291C6.61377 6.23478 6.49353 6.71452 6.71539 7.0847L10.2637 13.0015C9.46108 13.6387 9.15957 14.7282 9.55019 15.7038C10.8188 18.8762 12.8653 21.9289 15.4688 24.532C18.072 27.1349 21.125 29.1814 24.297 30.4504C25.2739 30.841 26.3643 30.5389 27.0009 29.7353L37.069 35.7776C35.8572 37.8049 33.482 38.8336 31.148 38.2956C25.5356 37.0004 20.3043 34.393 15.8192 30.8385C15.2755 30.4077 14.7428 29.9629 14.2217 29.5048C13.5102 28.8794 12.8203 28.2292 12.1538 27.556C7.06859 22.4196 3.34048 15.9403 1.70498 8.85351C1.1349 6.38309 2.32052 3.86537 4.58769 2.73133Z" fill="white"/>
</svg>
