<svg width="80" height="80" viewBox="0 0 80 80" fill="none" xmlns="http://www.w3.org/2000/svg">
<g opacity="0.8">
<path d="M32.0877 71.7958C31.9943 71.7952 31.9013 71.7829 31.8109 71.759C26.3304 70.3071 21.3323 67.4291 17.3255 63.4178C13.3186 59.4066 10.4461 54.4055 9.00012 48.9233C8.96084 48.785 8.94954 48.6403 8.96688 48.4975C8.98422 48.3548 9.02986 48.217 9.10113 48.0921C9.17239 47.9672 9.26785 47.8578 9.38192 47.7703C9.49598 47.6828 9.62636 47.6189 9.76542 47.5823C9.90448 47.5458 10.0494 47.5374 10.1918 47.5576C10.3341 47.5778 10.471 47.6261 10.5945 47.6999C10.7179 47.7736 10.8254 47.8712 10.9106 47.987C10.9959 48.1028 11.0572 48.2344 11.0909 48.3741C12.4391 53.4872 15.1181 58.1518 18.8551 61.8928C22.5922 65.6339 27.2539 68.3178 32.3655 69.6714C32.6205 69.7375 32.8426 69.8945 32.9901 70.1127C33.1375 70.331 33.2002 70.5956 33.1664 70.8568C33.1325 71.1181 33.0045 71.358 32.8062 71.5315C32.608 71.7049 32.3533 71.8001 32.0898 71.799L32.0877 71.7958Z" fill="white"/>
<path d="M68.0533 55.0484C67.8918 55.048 67.7325 55.0111 67.5873 54.9403C67.3288 54.8167 67.1299 54.5954 67.0344 54.3252C66.9389 54.0549 66.9547 53.7579 67.0781 53.4992C67.8624 51.8525 68.4904 50.1358 68.9538 48.3716C69.0311 48.0994 69.2121 47.8684 69.4579 47.7281C69.7037 47.5878 69.9947 47.5495 70.2684 47.6214C70.5421 47.6933 70.7767 47.8697 70.9219 48.1126C71.067 48.3556 71.1111 48.6457 71.0446 48.9208C70.5468 50.8176 69.8721 52.6636 69.0295 54.4344C68.9413 54.6184 68.8029 54.7738 68.6301 54.8824C68.4574 54.9911 68.2574 55.0486 68.0533 55.0484Z" fill="white"/>
<path d="M47.9338 71.7956C47.6707 71.7959 47.4164 71.7002 47.2188 71.5265C47.0212 71.3527 46.8937 71.1129 46.8603 70.8519C46.8269 70.5908 46.8898 70.3266 47.0373 70.1087C47.1848 69.8908 47.4066 69.7341 47.6614 69.6681C50.2973 68.9792 52.8236 67.9239 55.1662 66.5329C55.412 66.3971 55.7009 66.3621 55.972 66.4356C56.243 66.509 56.4749 66.685 56.6184 66.9263C56.762 67.1677 56.806 67.4554 56.7412 67.7286C56.6764 68.0018 56.5078 68.2391 56.2711 68.3902C53.755 69.8867 51.0408 71.0214 48.2084 71.761C48.1188 71.7846 48.0264 71.7963 47.9338 71.7956Z" fill="white"/>
<path d="M61.817 63.8489C61.6028 63.8484 61.3935 63.7843 61.2157 63.6646C61.038 63.545 60.8998 63.3752 60.8187 63.1769C60.7376 62.9786 60.7173 62.7607 60.7603 62.5508C60.8033 62.3409 60.9077 62.1485 61.0603 61.998C61.78 61.2897 62.461 60.543 63.1002 59.7613C63.2813 59.5389 63.5433 59.3976 63.8285 59.3684C64.1138 59.3392 64.399 59.4245 64.6213 59.6056C64.8437 59.7867 64.985 60.0486 65.0142 60.3339C65.0434 60.6192 64.9581 60.9043 64.777 61.1267C64.0882 61.9695 63.3541 62.7743 62.5781 63.5375C62.3753 63.7375 62.1018 63.8494 61.817 63.8489Z" fill="white"/>
<path d="M10.033 33.892C9.9399 33.8923 9.8472 33.8803 9.75729 33.8563C9.48122 33.7832 9.24531 33.6038 9.10109 33.3573C8.95687 33.1107 8.91605 32.8172 8.98756 32.5407C10.4375 27.0579 13.3129 22.0567 17.3217 18.0451C21.3304 14.0335 26.3296 11.1545 31.8113 9.70067C32.0886 9.62742 32.3836 9.6673 32.6315 9.81155C32.8793 9.9558 33.0597 10.1926 33.133 10.4699C33.2062 10.7471 33.1663 11.0421 33.0221 11.29C32.8778 11.5378 32.641 11.7182 32.3638 11.7915C27.2518 13.1468 22.5896 15.8311 18.8511 19.5717C15.1125 23.3124 12.4308 27.976 11.0784 33.0888C11.0171 33.3192 10.8813 33.5229 10.6923 33.6682C10.5032 33.8135 10.2714 33.8922 10.033 33.892Z" fill="white"/>
<path d="M69.9893 33.8812C69.7506 33.8812 69.5186 33.8022 69.3295 33.6565C69.1404 33.5108 69.0048 33.3066 68.9439 33.0758C67.5907 27.9648 64.9085 23.3032 61.1699 19.5648C57.4313 15.8264 52.7696 13.1444 47.6585 11.7914C47.3813 11.7175 47.1448 11.5364 47.001 11.288C46.8573 11.0397 46.8181 10.7444 46.892 10.4671C46.966 10.1899 47.1471 9.95335 47.3955 9.8096C47.6438 9.66586 47.9391 9.62666 48.2164 9.70063C53.6956 11.153 58.6928 14.0296 62.7005 18.0383C66.7083 22.0469 69.5837 27.0449 71.0348 32.5244C71.1081 32.8009 71.0688 33.0953 70.9255 33.3429C70.7823 33.5905 70.5467 33.7712 70.2704 33.8455C70.1788 33.87 70.0842 33.882 69.9893 33.8812Z" fill="white"/>
<path d="M40.0114 55.5137C36.6624 55.5116 33.4133 54.3728 30.796 52.2835C28.1786 50.1942 26.3481 47.2783 25.604 44.013C24.8599 40.7477 25.2463 37.3266 26.7 34.3096C28.1537 31.2926 30.5885 28.8584 33.606 27.4056C35.6095 26.4626 37.7965 25.9736 40.0108 25.9736C42.2252 25.9736 44.4122 26.4626 46.4157 27.4056C49.436 28.8562 51.8739 31.2898 53.3298 34.3076C54.7857 37.3253 55.1732 40.7481 54.4289 44.015C53.6845 47.2819 51.8525 50.1989 49.233 52.2881C46.6135 54.3773 43.362 55.5146 40.0114 55.5137ZM40.0114 28.1083C36.9063 28.108 33.91 29.2516 31.5949 31.3208C29.2798 33.39 27.8081 36.2395 27.4611 39.3251C27.1141 42.4107 27.9161 45.516 29.7138 48.0477C31.5115 50.5794 34.179 52.36 37.2065 53.0493C40.2341 53.7387 43.4095 53.2885 46.126 51.7847C48.8426 50.2809 50.91 47.8289 51.933 44.8973C52.9561 41.9656 52.8633 38.7598 51.6722 35.8923C50.4811 33.0248 48.2753 30.6966 45.4762 29.3526C43.7704 28.5349 41.9031 28.1098 40.0114 28.1083Z" fill="white"/>
<path d="M45.9462 29.4596C45.9054 29.4596 45.8646 29.4574 45.824 29.4531C45.6829 29.4373 45.5463 29.3938 45.422 29.3251C45.2977 29.2564 45.1881 29.1639 45.0995 29.0529C45.011 28.9418 44.9452 28.8144 44.9059 28.6779C44.8666 28.5415 44.8546 28.3986 44.8705 28.2575L47.2921 6.76232C47.3122 6.58565 47.2948 6.40672 47.2409 6.23725C47.1871 6.06779 47.0981 5.9116 46.9797 5.77893C46.8613 5.64625 46.7162 5.54008 46.554 5.46735C46.3917 5.39463 46.2159 5.357 46.0381 5.35692H33.984C33.8062 5.357 33.6304 5.39463 33.4682 5.46735C33.3059 5.54008 33.1608 5.64625 33.0424 5.77893C32.9241 5.9116 32.835 6.06779 32.7812 6.23725C32.7273 6.40672 32.7099 6.58565 32.73 6.76232L35.1505 28.2575C35.1664 28.3986 35.1544 28.5414 35.1151 28.6779C35.0757 28.8144 35.0099 28.9417 34.9214 29.0528C34.8329 29.1638 34.7233 29.2563 34.599 29.325C34.4747 29.3937 34.3381 29.4372 34.197 29.4531C34.0559 29.469 33.913 29.457 33.7766 29.4177C33.6401 29.3784 33.5127 29.3126 33.4017 29.224C33.2907 29.1355 33.1982 29.0259 33.1295 28.9016C33.0608 28.7773 33.0172 28.6407 33.0013 28.4996L30.5819 7.00448C30.5282 6.52564 30.5761 6.04086 30.7226 5.58181C30.8691 5.12277 31.1107 4.6998 31.4318 4.34054C31.7529 3.98128 32.1462 3.69381 32.586 3.49694C33.0258 3.30006 33.5022 3.19819 33.984 3.198H46.0381C46.5199 3.19819 46.9963 3.30006 47.4361 3.49694C47.8759 3.69381 48.2692 3.98128 48.5903 4.34054C48.9114 4.6998 49.1531 5.12277 49.2995 5.58181C49.446 6.04086 49.4939 6.52564 49.4403 7.00448L47.0208 28.4996C46.991 28.7638 46.865 29.0077 46.6668 29.1848C46.4685 29.3618 46.212 29.4597 45.9462 29.4596Z" fill="white"/>
<path d="M5.90533 50.1803C4.99719 50.1803 4.12623 49.8196 3.48397 49.1775C2.84172 48.5355 2.48076 47.6646 2.48047 46.7565V34.7024C2.48047 34.2206 2.58222 33.7442 2.77905 33.3043C2.97589 32.8645 3.26337 32.4712 3.62269 32.1502C3.98201 31.8291 4.40507 31.5876 4.86419 31.4413C5.32331 31.295 5.80814 31.2473 6.28696 31.3014L27.7843 33.7197C27.9254 33.7356 28.062 33.779 28.1863 33.8477C28.3106 33.9163 28.4202 34.0087 28.5088 34.1197C28.5974 34.2307 28.6633 34.358 28.7026 34.4945C28.742 34.6309 28.7541 34.7738 28.7383 34.9149C28.7225 35.056 28.679 35.1926 28.6104 35.3169C28.5418 35.4413 28.4493 35.5508 28.3383 35.6394C28.2274 35.728 28.1 35.7939 27.9636 35.8333C27.8271 35.8726 27.6843 35.8848 27.5432 35.8689L6.04587 33.4495C5.86926 33.4292 5.69035 33.4465 5.52089 33.5002C5.35142 33.5539 5.19522 33.6429 5.06252 33.7612C4.92983 33.8795 4.82363 34.0245 4.7509 34.1867C4.67816 34.3489 4.64053 34.5247 4.64047 34.7024V46.7565C4.64072 46.9343 4.67847 47.11 4.75125 47.2722C4.82403 47.4343 4.9302 47.5793 5.06284 47.6977C5.19548 47.816 5.35159 47.9051 5.52098 47.959C5.69037 48.0129 5.86923 48.0305 6.04587 48.0105L27.541 45.5911C27.6838 45.5717 27.8289 45.5811 27.968 45.6187C28.1071 45.6562 28.2373 45.7212 28.3509 45.8098C28.4645 45.8983 28.5592 46.0087 28.6296 46.1344C28.6999 46.2601 28.7444 46.3987 28.7605 46.5418C28.7766 46.685 28.7639 46.8299 28.7231 46.9681C28.6824 47.1062 28.6145 47.2349 28.5233 47.3464C28.4322 47.458 28.3196 47.5502 28.1924 47.6176C28.0651 47.6851 27.9256 47.7264 27.7821 47.7392L6.28696 50.1619C6.16018 50.1751 6.03278 50.1812 5.90533 50.1803Z" fill="white"/>
<path d="M46.039 78.2605H33.986C33.5041 78.2603 33.0278 78.1585 32.588 77.9616C32.1482 77.7647 31.7549 77.4772 31.4338 77.118C31.1127 76.7587 30.871 76.3357 30.7246 75.8767C30.5781 75.4177 30.5301 74.9329 30.5838 74.454L33.0033 52.9589C33.0165 52.8157 33.0581 52.6765 33.1258 52.5496C33.1934 52.4227 33.2857 52.3106 33.3972 52.2198C33.5088 52.129 33.6373 52.0613 33.7753 52.0208C33.9133 51.9803 34.058 51.9677 34.2009 51.9839C34.3438 52 34.4821 52.0444 34.6076 52.1146C34.7331 52.1849 34.8434 52.2794 34.9319 52.3928C35.0204 52.5061 35.0854 52.636 35.1231 52.7748C35.1608 52.9136 35.1704 53.0585 35.1514 53.2011L32.7319 74.6962C32.7118 74.8729 32.7293 75.0518 32.7831 75.2213C32.837 75.3907 32.926 75.5469 33.0444 75.6796C33.1628 75.8123 33.3079 75.9184 33.4701 75.9912C33.6324 76.0639 33.8082 76.1015 33.986 76.1016H46.039C46.2168 76.1017 46.3927 76.0642 46.555 75.9915C46.7174 75.9188 46.8625 75.8127 46.981 75.6799C47.0994 75.5472 47.1884 75.391 47.2422 75.2214C47.296 75.0519 47.3133 74.8729 47.293 74.6962L44.8735 53.2011C44.8545 53.0585 44.8642 52.9136 44.9018 52.7748C44.9395 52.636 45.0045 52.5061 45.0931 52.3928C45.1816 52.2794 45.2918 52.1849 45.4173 52.1146C45.5429 52.0444 45.6811 52 45.824 51.9839C45.9669 51.9677 46.1116 51.9803 46.2496 52.0208C46.3876 52.0613 46.5162 52.129 46.6277 52.2198C46.7392 52.3106 46.8315 52.4227 46.8992 52.5496C46.9668 52.6765 47.0085 52.8157 47.0217 52.9589L49.4411 74.454C49.4952 74.9329 49.4474 75.4179 49.3011 75.8771C49.1548 76.3362 48.9131 76.7594 48.5919 77.1187C48.2708 77.478 47.8773 77.7655 47.4374 77.9623C46.9974 78.159 46.5209 78.2607 46.039 78.2605Z" fill="white"/>
<path d="M74.1184 50.1795C73.9909 50.1793 73.8635 50.1721 73.7367 50.1579L52.2416 47.7374C52.0984 47.7242 51.9593 47.6825 51.8323 47.6149C51.7054 47.5472 51.5933 47.4549 51.5025 47.3434C51.4117 47.2319 51.344 47.1033 51.3035 46.9653C51.263 46.8274 51.2505 46.6827 51.2666 46.5397C51.2827 46.3968 51.3271 46.2586 51.3974 46.1331C51.4676 46.0075 51.5621 45.8973 51.6755 45.8088C51.7888 45.7203 51.9187 45.6553 52.0575 45.6176C52.1963 45.5799 52.3412 45.5702 52.4838 45.5893L73.9789 48.0087C74.1556 48.0292 74.3345 48.012 74.5041 47.9583C74.6736 47.9047 74.8299 47.8158 74.9626 47.6974C75.0954 47.5791 75.2016 47.434 75.2742 47.2717C75.3469 47.1094 75.3844 46.9336 75.3843 46.7557V34.7028C75.3844 34.5249 75.3469 34.349 75.2742 34.1867C75.2016 34.0243 75.0954 33.8792 74.9627 33.7608C74.83 33.6424 74.6737 33.5533 74.5042 33.4996C74.3346 33.4458 74.1556 33.4285 73.9789 33.4487L52.4838 35.8671C52.3412 35.8861 52.1963 35.8765 52.0575 35.8388C51.9187 35.8011 51.7888 35.7361 51.6755 35.6476C51.5621 35.5591 51.4676 35.4488 51.3974 35.3233C51.3271 35.1978 51.2827 35.0595 51.2666 34.9166C51.2505 34.7737 51.263 34.629 51.3035 34.491C51.344 34.353 51.4117 34.2245 51.5025 34.113C51.5933 34.0014 51.7054 33.9091 51.8323 33.8415C51.9593 33.7738 52.0984 33.7322 52.2416 33.719L73.7367 31.2995C74.2157 31.2457 74.7007 31.2935 75.1598 31.44C75.619 31.5864 76.0421 31.8282 76.4015 32.1495C76.7608 32.4707 77.0482 32.8642 77.245 33.3042C77.4417 33.7442 77.5434 34.2208 77.5432 34.7028V46.7568C77.5432 47.2065 77.4546 47.6518 77.2825 48.0673C77.1104 48.4828 76.8581 48.8603 76.5401 49.1782C76.222 49.4961 75.8444 49.7483 75.4289 49.9203C75.0134 50.0923 74.5681 50.1808 74.1184 50.1806V50.1795Z" fill="white"/>
<path d="M30.3283 32.1244C30.0416 32.1244 29.7666 32.0104 29.5639 31.8077L25.4882 27.732C25.385 27.6323 25.3026 27.513 25.246 27.3811C25.1893 27.2492 25.1595 27.1073 25.1582 26.9638C25.157 26.8202 25.1843 26.6779 25.2387 26.545C25.2931 26.4121 25.3733 26.2914 25.4748 26.1899C25.5764 26.0884 25.6971 26.0082 25.8299 25.9538C25.9628 25.8994 26.1051 25.8721 26.2487 25.8733C26.3922 25.8746 26.5341 25.9044 26.666 25.9611C26.7979 26.0177 26.9172 26.1001 27.0169 26.2033L31.0926 30.279C31.2437 30.4302 31.3466 30.6228 31.3883 30.8325C31.43 31.0422 31.4086 31.2595 31.3268 31.457C31.245 31.6545 31.1065 31.8234 30.9287 31.9421C30.751 32.0609 30.542 32.1244 30.3283 32.1244Z" fill="white"/>
<path d="M26.2488 55.5678C26.035 55.5677 25.8261 55.5043 25.6483 55.3855C25.4706 55.2667 25.3321 55.0979 25.2502 54.9004C25.1684 54.7029 25.147 54.4855 25.1887 54.2758C25.2304 54.0662 25.3333 53.8736 25.4845 53.7224L29.5602 49.6467C29.6599 49.5434 29.7792 49.4611 29.9111 49.4044C30.043 49.3478 30.1848 49.3179 30.3284 49.3167C30.4719 49.3154 30.6143 49.3428 30.7471 49.3972C30.88 49.4515 31.0007 49.5318 31.1022 49.6333C31.2037 49.7348 31.284 49.8555 31.3384 49.9884C31.3927 50.1212 31.4201 50.2636 31.4188 50.4071C31.4176 50.5507 31.3877 50.6925 31.3311 50.8244C31.2744 50.9563 31.1921 51.0756 31.0888 51.1753L27.0131 55.251C26.8104 55.4538 26.5355 55.5677 26.2488 55.5678Z" fill="white"/>
<path d="M53.7693 55.5676C53.4826 55.5675 53.2077 55.4536 53.005 55.2508L48.9304 51.1751C48.7335 50.9712 48.6245 50.6982 48.627 50.4147C48.6295 50.1312 48.7432 49.8601 48.9436 49.6597C49.144 49.4592 49.4152 49.3455 49.6986 49.3431C49.9821 49.3406 50.2552 49.4496 50.4591 49.6465L54.5337 53.7222C54.6848 53.8734 54.7877 54.066 54.8294 54.2756C54.8711 54.4853 54.8497 54.7027 54.7679 54.9002C54.6861 55.0977 54.5476 55.2665 54.3698 55.3853C54.1921 55.5041 53.9831 55.5675 53.7693 55.5676Z" fill="white"/>
<path d="M49.698 32.1276C49.4843 32.1276 49.2753 32.0642 49.0975 31.9454C48.9198 31.8266 48.7813 31.6577 48.6995 31.4602C48.6177 31.2627 48.5963 31.0454 48.6379 30.8357C48.6796 30.626 48.7826 30.4334 48.9337 30.2822L53.0094 26.2065C53.2133 26.0096 53.4864 25.9007 53.7698 25.9031C54.0533 25.9056 54.3244 26.0193 54.5249 26.2197C54.7253 26.4202 54.839 26.6913 54.8415 26.9748C54.8439 27.2582 54.735 27.5313 54.538 27.7352L50.4624 31.8109C50.2597 32.0136 49.9847 32.1276 49.698 32.1276Z" fill="white"/>
</g>
</svg>
