<svg width="31" height="45" viewBox="0 0 31 45" fill="none" xmlns="http://www.w3.org/2000/svg">
<path d="M29.6635 16.5707C29.5878 16.4925 26.6589 14.7548 26.6589 14.7548L26.8272 14.3702C27.0886 13.7728 26.8583 13.0922 26.2794 12.752C25.7064 12.4156 24.9659 12.5176 24.5185 12.9951L24.2379 13.2946L20.1742 10.8437C19.8319 10.648 19.7018 10.2698 19.6982 9.89458C19.4148 8.47111 18.1556 7.43795 16.7043 7.43795H16.1334V5.6608C17.452 5.35494 18.3835 4.16772 18.3424 2.78151C18.298 1.28359 17.0907 0.0628736 15.5937 0.00231696C14.4795 -0.0425952 13.4312 0.568596 12.9226 1.55983C12.7567 1.88309 12.8843 2.27965 13.2075 2.4455C13.5307 2.61135 13.9273 2.48382 14.0932 2.16056C14.3686 1.62364 14.9353 1.2929 15.5407 1.3169C16.3503 1.34959 17.0033 2.01 17.0272 2.82035C17.0512 3.62816 16.4662 4.31107 15.6668 4.40889C15.1828 4.46795 14.8177 4.87779 14.8177 5.36215V7.43778H14.3167C12.8933 7.43778 11.6392 8.44703 11.3347 9.83789C11.2454 10.3303 10.949 10.7708 10.5187 11.0286L6.76214 13.2945L6.48142 12.9948C6.03415 12.5174 5.2934 12.4151 4.72044 12.7518C4.14168 13.0919 3.91132 13.7724 4.17271 14.3698L4.34102 14.7546L1.41382 16.52C0.815728 16.8807 0.444214 17.5388 0.444214 18.2373C0.444214 18.6007 0.738735 18.8952 1.10208 18.8952C1.46542 18.8952 1.75994 18.6007 1.75994 18.2373C1.75994 18.0202 1.86497 17.8152 2.03688 17.686H5.62326L7.52178 22.0265C8.00878 23.1398 8.585 24.2334 9.23451 25.2769L9.78655 26.1638C6.27523 29.9736 3.70434 34.6234 2.34617 39.6237L1.29201 43.5053C1.19462 43.8642 1.26828 44.2395 1.49416 44.535C1.72003 44.8304 2.0629 44.9999 2.43476 44.9999H6.4286C6.79194 44.9999 7.08646 44.7053 7.08646 44.342C7.08646 43.9787 6.79194 43.6841 6.4286 43.6841H2.60685L3.61592 39.9686C4.93437 35.1144 7.44453 30.604 10.8749 26.9252C11.2052 26.5711 11.2571 26.0367 11.0013 25.6257L10.3515 24.5817C9.7354 23.5918 9.18889 22.5547 8.7272 21.4992L5.39536 13.8819C5.44141 13.8605 5.50188 13.8737 5.52139 13.8945L10.043 18.7208C11.4078 20.1775 13.3967 21.0129 15.5 21.0129C17.6032 21.0129 19.5922 20.1775 20.957 18.7208L25.4786 13.8948C25.4981 13.8738 25.559 13.8607 25.6047 13.8822L22.2727 21.4996C21.8111 22.5549 21.2647 23.592 20.6485 24.582L19.9987 25.626C19.7441 26.0351 19.7944 26.5663 20.1205 26.9204C20.1222 26.9223 20.1239 26.9242 20.1257 26.9261C21.2659 28.1489 22.3148 29.4742 23.2432 30.8651C23.4449 31.1673 23.8534 31.2486 24.1556 31.047C24.4578 30.8453 24.5393 30.4368 24.3375 30.1347C23.404 28.7361 22.3535 27.4011 21.2134 26.1642L21.7654 25.2771C22.415 24.2334 22.9912 23.1399 23.4781 22.0267L25.3767 17.6863H28.9631C29.1351 17.8155 29.2401 18.0205 29.2401 18.2376C29.2401 18.6009 29.5346 18.8955 29.8979 18.8955C30.2613 18.8955 30.5558 18.6009 30.5558 18.2376C30.5557 17.5701 30.2158 16.9402 29.6635 16.5707ZM4.20954 16.3706L4.87276 15.9706L5.04775 16.3706H4.20954ZM11.1982 12.1557C11.9128 11.7246 12.425 11.0099 12.6036 10.1941L12.62 10.1191C12.7932 9.32813 13.5067 8.75385 14.3166 8.75385H16.7042C17.5119 8.75385 18.215 9.31626 18.3963 10.0988C18.4221 10.8624 18.8379 11.5743 19.4945 11.9705L23.318 14.2765L21.3552 16.3715C21.3492 16.3713 21.3433 16.3706 21.3372 16.3706H9.6439L7.68183 14.2765L11.1982 12.1557ZM15.5 19.6972C13.7592 19.6972 12.1201 19.0134 11.003 17.8212L10.8767 17.6863H20.1233L19.9969 17.8212C18.8798 19.0134 17.2407 19.6972 15.5 19.6972ZM26.1272 15.9706L26.7903 16.3706H25.9522L26.1272 15.9706Z" fill="white"/>
<path d="M28.6536 39.6241C28.0008 37.2203 27.0686 34.8906 25.883 32.6997C25.71 32.3801 25.311 32.2612 24.9914 32.4342C24.6718 32.6071 24.553 33.0063 24.7259 33.3259C25.8633 35.4278 26.7576 37.6628 27.3839 39.969L28.3931 43.6844H9.59731C9.23397 43.6844 8.93945 43.9789 8.93945 44.3423C8.93945 44.7056 9.23397 45.0001 9.59731 45.0001H28.5651C28.937 45.0001 29.2798 44.8307 29.5057 44.5353C29.7316 44.2399 29.8052 43.8645 29.7078 43.5055L28.6536 39.6241Z" fill="white"/>
</svg>
