<svg width="80" height="80" viewBox="0 0 80 80" fill="none" xmlns="http://www.w3.org/2000/svg">
<g opacity="0.3">
<path d="M73.3298 52.2594C73.2527 52.2596 73.1759 52.2513 73.1006 52.2345C72.9619 52.2045 72.8303 52.1474 72.7136 52.0666C72.5969 51.9857 72.4972 51.8827 72.4203 51.7633C72.3434 51.644 72.2908 51.5106 72.2654 51.3709C72.2401 51.2312 72.2425 51.0879 72.2725 50.9491C72.4925 49.9288 72.6595 48.8979 72.7731 47.8604C72.8067 47.5774 72.9508 47.3191 73.1739 47.1418C73.397 46.9644 73.6811 46.8824 73.9644 46.9134C74.2478 46.9445 74.5073 47.0862 74.6867 47.3077C74.8661 47.5292 74.9508 47.8125 74.9223 48.0961C74.7987 49.208 74.6183 50.3129 74.3817 51.4064C74.3298 51.6471 74.1972 51.8629 74.0059 52.018C73.8146 52.1731 73.5761 52.2583 73.3298 52.2594Z" fill="white"/>
<path d="M41.7188 77.8382C35.5571 77.8357 29.516 76.1298 24.2631 72.909C19.0102 69.6882 14.75 65.0779 11.9533 59.5874C9.15657 54.097 7.93219 47.9403 8.41546 41.7975C8.89874 35.6548 11.0708 29.7653 14.6918 24.7798C14.7922 24.642 14.9238 24.5299 15.0758 24.4527C15.2278 24.3755 15.3959 24.3353 15.5664 24.3354H26.1718C26.3603 24.3354 26.5457 24.3846 26.7093 24.4783C26.873 24.572 27.0093 24.7068 27.1047 24.8695L33.1534 35.1992L39.1837 24.8706C39.279 24.7076 39.4155 24.5724 39.5793 24.4785C39.7432 24.3846 39.9288 24.3353 40.1177 24.3354H67.8593C68.0293 24.3354 68.1968 24.3754 68.3484 24.4522C68.5 24.529 68.6313 24.6405 68.7318 24.7776C71.971 29.2156 74.0566 34.389 74.8009 39.8327C74.8201 39.9734 74.8114 40.1165 74.7753 40.2538C74.7391 40.3912 74.6763 40.52 74.5904 40.6331C74.5044 40.7461 74.3971 40.8411 74.2744 40.9126C74.1518 40.9842 74.0162 41.0309 73.8755 41.05C73.7348 41.0692 73.5918 41.0605 73.4545 41.0243C73.3171 40.9882 73.1883 40.9254 73.0752 40.8395C72.9622 40.7535 72.8672 40.6462 72.7956 40.5235C72.7241 40.4009 72.6774 40.2653 72.6582 40.1246C71.9868 35.2218 70.1511 30.5511 67.3047 26.503H40.7393L34.0907 37.8911C33.996 38.0551 33.8599 38.1914 33.6959 38.2863C33.532 38.3811 33.346 38.4313 33.1566 38.4317C32.9679 38.4316 32.7825 38.3822 32.6189 38.2884C32.4552 38.1945 32.3189 38.0594 32.2237 37.8965L25.5534 26.4976H16.1231C11.6383 32.8785 9.70217 40.7061 10.6953 48.4419C11.6885 56.1777 15.5391 63.2624 21.4904 68.3034C27.4416 73.3445 35.0631 75.9774 42.8569 75.6846C50.6508 75.3919 58.0533 72.1947 63.6096 66.7214C63.8165 66.534 64.0879 66.434 64.367 66.4422C64.646 66.4504 64.9111 66.5662 65.1066 66.7654C65.3022 66.9646 65.4131 67.2318 65.4162 67.5109C65.4193 67.7901 65.3143 68.0596 65.1231 68.263C58.8909 74.4181 50.4781 77.8599 41.7188 77.8382Z" fill="white"/>
<path d="M69.383 62.2378C69.1913 62.2377 69.003 62.1865 68.8376 62.0897C68.6721 61.9928 68.5354 61.8537 68.4415 61.6865C68.3475 61.5194 68.2997 61.3303 68.3029 61.1386C68.3061 60.9469 68.3602 60.7595 68.4597 60.5957C68.9952 59.7222 69.482 58.82 69.9181 57.8929C69.9768 57.7621 70.0608 57.6443 70.1655 57.5463C70.2701 57.4483 70.3932 57.372 70.5275 57.322C70.6619 57.272 70.8049 57.2493 70.9481 57.255C71.0914 57.2608 71.232 57.295 71.3619 57.3557C71.4918 57.4163 71.6084 57.5022 71.7048 57.6083C71.8012 57.7144 71.8755 57.8386 71.9234 57.9738C71.9714 58.1089 71.992 58.2522 71.984 58.3953C71.976 58.5385 71.9397 58.6786 71.877 58.8075C71.4086 59.8088 70.8849 60.7833 70.3084 61.7265C70.2108 61.8838 70.0745 62.0135 69.9125 62.103C69.7504 62.1925 69.5681 62.239 69.383 62.2378Z" fill="white"/>
<path d="M27.1578 65.8376C26.9679 65.8375 26.7814 65.7872 26.6173 65.6916C20.7412 62.2647 16.4354 56.6789 14.6173 50.1241C14.5782 49.9865 14.5668 49.8425 14.5838 49.7005C14.6008 49.5585 14.6458 49.4213 14.7162 49.2968C14.7865 49.1723 14.8809 49.063 14.9939 48.9753C15.1068 48.8875 15.236 48.823 15.374 48.7856C15.512 48.7481 15.6561 48.7384 15.7979 48.757C15.9397 48.7756 16.0764 48.8221 16.2 48.8939C16.3237 48.9657 16.4319 49.0614 16.5184 49.1753C16.6049 49.2892 16.6678 49.4191 16.7037 49.5576C18.3687 55.5661 22.3147 60.6866 27.7005 63.8278C27.9055 63.9473 28.0655 64.1309 28.1559 64.3503C28.2462 64.5698 28.2618 64.8128 28.2004 65.042C28.1389 65.2712 28.0037 65.4738 27.8157 65.6185C27.6277 65.7633 27.3972 65.8421 27.16 65.843L27.1578 65.8376Z" fill="white"/>
<path d="M47.1194 56.9601C46.114 56.9625 45.1343 56.6428 44.3238 56.048C43.5133 55.4531 42.9147 54.6143 42.6155 53.6545C42.3163 52.6946 42.3324 51.6642 42.6614 50.7142C42.9904 49.7642 43.615 48.9445 44.4437 48.3752C45.0512 47.9583 45.7481 47.6899 46.4783 47.5915C47.2084 47.4931 47.9515 47.5675 48.6477 47.8088C49.3438 48.05 49.9736 48.4514 50.4863 48.9805C50.999 49.5096 51.3803 50.1517 51.5995 50.8551C51.8187 51.5586 51.8697 52.3036 51.7484 53.0303C51.627 53.757 51.3367 54.4451 50.9009 55.0391C50.465 55.6332 49.8958 56.1166 49.239 56.4504C48.5822 56.7842 47.8562 56.9592 47.1194 56.9612V56.9601ZM47.1043 49.7071C46.5913 49.7079 46.0907 49.8643 45.6686 50.1558C45.176 50.4985 44.8223 51.0062 44.6717 51.5872C44.5211 52.1681 44.5835 52.7837 44.8476 53.3226C45.1117 53.8614 45.56 54.2879 46.1114 54.5248C46.6628 54.7617 47.2807 54.7933 47.8534 54.6139C48.4261 54.4345 48.9156 54.056 49.2333 53.5469C49.551 53.0378 49.6758 52.4317 49.5853 51.8385C49.4947 51.2452 49.1947 50.704 48.7396 50.3129C48.2845 49.9217 47.7044 49.7064 47.1043 49.7061V49.7071Z" fill="white"/>
<path d="M57.6018 61.6941C57.3117 61.6939 57.0222 61.6675 56.7369 61.6152C55.8217 61.4454 54.9774 61.008 54.3107 60.3584C53.644 59.7087 53.1849 58.876 52.9915 57.9655C52.798 57.055 52.8788 56.1075 53.2238 55.2429C53.5687 54.3783 54.1622 53.6355 54.9294 53.1082C55.5369 52.6912 56.2338 52.4227 56.964 52.3244C57.6942 52.226 58.4374 52.3004 59.1335 52.5418C59.8297 52.7831 60.4595 53.1845 60.9722 53.7137C61.4849 54.2429 61.8662 54.8851 62.0853 55.5886C62.3045 56.2921 62.3554 57.0372 62.2339 57.7639C62.1124 58.4907 61.822 59.1787 61.386 59.7727C60.9501 60.3667 60.3807 60.85 59.7238 61.1838C59.0669 61.5175 58.3408 61.6923 57.604 61.6941H57.6018ZM57.5877 54.4422C57.0745 54.4424 56.5735 54.5985 56.151 54.8898C55.6527 55.2339 55.2943 55.7453 55.1408 56.331C54.9872 56.9168 55.0487 57.5381 55.314 58.0825C55.5794 58.6268 56.031 59.058 56.587 59.2978C57.143 59.5377 57.7666 59.5703 58.3446 59.3898C58.9226 59.2093 59.4168 58.8277 59.7375 58.314C60.0583 57.8004 60.1843 57.1888 60.0927 56.5902C60.0012 55.9917 59.6981 55.4457 59.2385 55.0514C58.779 54.6571 58.1933 54.4406 57.5877 54.4411V54.4422Z" fill="white"/>
<path d="M47.7846 68.4421C46.7793 68.4441 45.7998 68.1242 44.9895 67.5292C44.1791 66.9342 43.5806 66.0953 43.2815 65.1356C42.9824 64.1758 42.9985 63.1455 43.3273 62.1955C43.6561 61.2455 44.2805 60.4257 45.1089 59.8562C45.7164 59.4393 46.4133 59.1708 47.1434 59.0724C47.8736 58.974 48.6167 59.0485 49.3129 59.2897C50.009 59.531 50.6388 59.9323 51.1515 60.4614C51.6642 60.9906 52.0455 61.6327 52.2647 62.3361C52.4839 63.0395 52.5349 63.7846 52.4136 64.5113C52.2922 65.238 52.0019 65.9261 51.5661 66.5201C51.1302 67.1141 50.561 67.5975 49.9042 67.9314C49.2474 68.2652 48.5214 68.4401 47.7846 68.4421ZM47.7738 61.1892C47.2602 61.1887 46.7586 61.3449 46.3359 61.6367C45.8341 61.9817 45.4725 62.4951 45.317 63.0838C45.1614 63.6726 45.2221 64.2976 45.488 64.8454C45.754 65.3933 46.2075 65.8275 46.7664 66.0695C47.3252 66.3114 47.9523 66.3449 48.5337 66.1639C49.1152 65.9829 49.6124 65.5994 49.9352 65.0831C50.2581 64.5667 50.385 63.9517 50.293 63.3497C50.2011 62.7478 49.8963 62.1987 49.4341 61.8023C48.9718 61.4058 48.3827 61.1883 47.7738 61.1892Z" fill="white"/>
<path d="M20.4627 26.4952C20.2086 26.495 19.9627 26.4052 19.7682 26.2417C19.5736 26.0782 19.4429 25.8514 19.3989 25.6012L17.4714 14.6152C17.4422 14.4736 17.4418 14.3275 17.4702 14.1858C17.4985 14.044 17.555 13.9093 17.6362 13.7897C17.7175 13.6701 17.822 13.5681 17.9434 13.4896C18.0648 13.4111 18.2008 13.3577 18.3432 13.3327C18.4856 13.3077 18.6316 13.3115 18.7725 13.3439C18.9134 13.3763 19.0464 13.4366 19.1636 13.5213C19.2808 13.606 19.3798 13.7134 19.4547 13.837C19.5297 13.9607 19.5791 14.0981 19.6 14.2412L21.5287 25.2271C21.5532 25.3669 21.55 25.5103 21.5192 25.6489C21.4884 25.7875 21.4306 25.9186 21.3491 26.0349C21.2675 26.1511 21.1639 26.2502 21.0441 26.3264C20.9243 26.4026 20.7907 26.4544 20.6508 26.479C20.5887 26.4897 20.5258 26.4951 20.4627 26.4952Z" fill="white"/>
<path d="M5.95606 17.6143C5.75274 17.6143 5.55354 17.557 5.38134 17.4489C5.20913 17.3408 5.07089 17.1863 4.9825 17.0032C4.89411 16.8201 4.85915 16.6158 4.88163 16.4137C4.9041 16.2116 4.98311 16.02 5.10958 15.8608L15.6523 2.57107C15.8186 2.36194 16.0564 2.2218 16.3199 2.17769C16.5834 2.13357 16.854 2.18859 17.0793 2.33215L31.3842 11.45C31.5683 11.5675 31.7125 11.7381 31.7978 11.9392C31.883 12.1404 31.9054 12.3626 31.8618 12.5767C31.8183 12.7908 31.7109 12.9866 31.5539 13.1385C31.3968 13.2903 31.1974 13.391 30.982 13.4273L6.13552 17.5992C6.07628 17.6096 6.01621 17.6146 5.95606 17.6143ZM16.7398 4.67918L8.55174 15.0013L27.8501 11.7581L16.7398 4.67918Z" fill="white"/>
<path d="M49.8875 26.4949C49.7978 26.4948 49.7085 26.4839 49.6215 26.4625C49.4838 26.4278 49.3542 26.3663 49.2403 26.2814C49.1263 26.1966 49.0302 26.0902 48.9574 25.9682C48.8846 25.8462 48.8366 25.7111 48.816 25.5705C48.7955 25.4299 48.8029 25.2867 48.8377 25.149L52.721 9.77386C52.7672 9.59028 52.8608 9.42205 52.9925 9.28602C53.1242 9.14999 53.2893 9.05092 53.4712 8.99872L64.9642 5.70467C65.1007 5.66556 65.2436 5.65371 65.3847 5.66982C65.5257 5.68592 65.6623 5.72965 65.7865 5.79852C65.9106 5.86738 66.02 5.96003 66.1084 6.07118C66.1968 6.18232 66.2624 6.30979 66.3015 6.44629C66.3406 6.5828 66.3525 6.72567 66.3364 6.86675C66.3203 7.00783 66.2765 7.14436 66.2077 7.26854C66.1388 7.39271 66.0461 7.50211 65.935 7.59049C65.8239 7.67886 65.6964 7.74448 65.5599 7.78359L54.6648 10.9058L50.9339 25.6776C50.8753 25.9109 50.7405 26.1179 50.551 26.2659C50.3614 26.4139 50.1279 26.4945 49.8875 26.4949Z" fill="white"/>
</g>
</svg>
