<svg width="52" height="40" viewBox="0 0 52 40" fill="none" xmlns="http://www.w3.org/2000/svg">
<g opacity="0.8">
<path d="M40.714 20.6643C41.0139 20.1462 40.837 19.4832 40.3189 19.1833C39.8009 18.8836 39.1377 19.0603 38.8378 19.5784C36.1914 24.1515 31.2722 26.9923 26 26.9923C20.9394 26.9923 16.2045 24.3755 13.492 20.1214C16.2045 15.8671 20.9394 13.2504 26 13.2504C29.169 13.2504 32.1916 14.2369 34.7408 16.1034C35.224 16.4569 35.9021 16.3521 36.2557 15.8692C36.6093 15.3862 36.5044 14.7079 36.0214 14.3543C33.0981 12.2139 29.6326 11.0826 26 11.0826C19.9567 11.0826 14.3185 14.3381 11.2859 19.5786C11.0915 19.9144 11.0915 20.3285 11.2859 20.6645C14.3187 25.9049 19.9568 29.1603 26 29.1603C32.0432 29.1601 37.6814 25.9046 40.714 20.6643Z" fill="white"/>
<path d="M25.9999 23.93C25.4013 23.93 24.916 24.4153 24.916 25.0139C24.916 25.6125 25.4013 26.0978 25.9999 26.0978C29.2954 26.0978 31.9764 23.4167 31.9764 20.1213C31.9764 16.8259 29.2953 14.1447 25.9999 14.1447C22.7046 14.1447 20.0234 16.8259 20.0234 20.1213C20.0234 20.72 20.5087 21.2053 21.1073 21.2053C21.7059 21.2053 22.1912 20.72 22.1912 20.1213C22.1912 18.0212 23.8999 16.3125 25.9999 16.3125C28.0999 16.3125 29.8086 18.0212 29.8086 20.1213C29.8086 22.2215 28.1001 23.93 25.9999 23.93Z" fill="white"/>
</g>
<path d="M6 5H3C1.89543 5 1 5.89543 1 7V10M6 35H3C1.89543 35 1 34.1046 1 33V30" stroke="#8AAEE6" stroke-width="2" stroke-linecap="round"/>
<path d="M46 5H49C50.1046 5 51 5.89543 51 7V10M46 35H49C50.1046 35 51 34.1046 51 33V30" stroke="#8AAEE6" stroke-width="2" stroke-linecap="round"/>
</svg>
