<svg width="45" height="45" viewBox="0 0 45 45" fill="none" xmlns="http://www.w3.org/2000/svg">
<path d="M22.5 35C29.3925 35 35 29.3925 35 22.5C35 15.6075 29.3925 10 22.5 10C15.6075 10 10 15.6075 10 22.5C10 29.3925 15.6075 35 22.5 35ZM25.8886 21.0965V23.9035L23.9035 25.8886H21.0965L19.1114 23.9035V21.0965L21.0965 19.1114H23.9035L25.8886 21.0965ZM11.927 26.6835C11.4126 25.388 11.1295 23.9764 11.1295 22.5C11.1295 21.3203 11.3102 20.1822 11.6452 19.1114H19.499L11.927 26.6835ZM12.4308 27.7771L17.9819 22.226V32.9333C15.5975 31.8968 13.6354 30.0662 12.4308 27.7771ZM19.1114 33.3548V25.501L26.6835 33.073C25.388 33.5874 23.9764 33.8705 22.5 33.8705C21.3203 33.8705 20.1822 33.6898 19.1114 33.3548ZM27.7771 32.5692L22.226 27.0181H32.9333C31.8968 29.4025 30.0662 31.3646 27.7771 32.5692ZM33.3548 25.8886H25.501L33.073 18.3165C33.5874 19.612 33.8705 21.0236 33.8705 22.5C33.8705 23.6797 33.6898 24.8178 33.3548 25.8886ZM32.5692 17.2229L27.0181 22.774V12.0667C29.4025 13.1032 31.3646 14.9338 32.5692 17.2229ZM25.8886 11.6452V19.499L18.3165 11.927C19.612 11.4126 21.0236 11.1295 22.5 11.1295C23.6797 11.1295 24.8178 11.3102 25.8886 11.6452ZM17.2229 12.4308L22.774 17.9819H12.0667C13.1032 15.5975 14.9338 13.6354 17.2229 12.4308Z" fill="white"/>
<path d="M0.899023 22.5C0.401964 22.5 -0.0028554 22.0968 0.0170077 21.6001C0.227716 16.3325 2.283 11.2948 5.83911 7.37726C9.59726 3.23711 14.7623 0.644618 20.3277 0.105017C25.893 -0.43458 31.4599 1.11738 35.9434 4.45845C40.4269 7.79951 43.5058 12.6903 44.5799 18.1776C45.6541 23.6649 44.6466 29.3556 41.7538 34.1406C38.861 38.9256 34.2902 42.462 28.9322 44.0607C23.5741 45.6594 17.8128 45.2058 12.7709 42.7883C8.00015 40.5007 4.19707 36.6098 2.01572 31.8105C1.81005 31.358 2.03295 30.8319 2.49332 30.6445C2.95369 30.457 3.47703 30.6793 3.68427 31.1311C5.69586 35.5164 9.18177 39.0711 13.5492 41.1652C18.1877 43.3893 23.4881 43.8067 28.4175 42.3359C33.3469 40.8651 37.5521 37.6115 40.2134 33.2093C42.8748 28.8071 43.8017 23.5717 42.8135 18.5234C41.8252 13.4751 38.9927 8.97555 34.8679 5.90177C30.7431 2.82799 25.6215 1.40019 20.5014 1.89662C15.3813 2.39305 10.6294 4.77814 7.1719 8.58708C3.91647 12.1734 2.02816 16.7801 1.81857 21.6002C1.79698 22.0968 1.39608 22.5 0.899023 22.5Z" fill="white"/>
</svg>
