<svg width="89" height="28" viewBox="0 0 89 28" fill="none" xmlns="http://www.w3.org/2000/svg">
<circle cx="41" cy="14" r="9" stroke="white" stroke-opacity="0.15" stroke-width="10"/>
<path d="M0 23.096V5.384H5.712C7.632 5.384 9.064 5.792 10.008 6.608C10.952 7.408 11.424 8.568 11.424 10.088V10.424C11.424 11.336 11.248 12.088 10.896 12.68C10.544 13.256 10.056 13.704 9.432 14.024C10.264 14.312 10.92 14.776 11.4 15.416C11.896 16.04 12.144 16.888 12.144 17.96V18.296C12.144 19.832 11.672 21.016 10.728 21.848C9.784 22.68 8.352 23.096 6.432 23.096H0ZM6.12 7.448H2.352V13.184H6.12C7.112 13.184 7.84 12.92 8.304 12.392C8.784 11.848 9.024 11.16 9.024 10.328C9.024 9.48 8.784 8.792 8.304 8.264C7.84 7.72 7.112 7.448 6.12 7.448ZM6.768 15.152H2.352V21.032H6.768C7.712 21.032 8.44 20.768 8.952 20.24C9.48 19.696 9.744 18.976 9.744 18.08C9.744 17.168 9.488 16.456 8.976 15.944C8.464 15.416 7.728 15.152 6.768 15.152Z" fill="white"/>
<path d="M16.3125 23V5.384H22.0485C23.3285 5.384 24.4485 5.576 25.4085 5.96C26.3685 6.344 27.1125 6.936 27.6405 7.736C28.1685 8.536 28.4325 9.568 28.4325 10.832V11.216C28.4325 12.592 28.1125 13.696 27.4725 14.528C26.8485 15.344 25.9925 15.928 24.9045 16.28L29.9925 23H27.1365L22.4085 16.664C22.2965 16.664 22.1765 16.664 22.0485 16.664H18.6645V23H16.3125ZM22.4805 7.448H18.6645V14.576H22.4805C23.5685 14.576 24.4325 14.24 25.0725 13.568C25.7125 12.896 26.0325 12.048 26.0325 11.024C26.0325 9.984 25.7125 9.128 25.0725 8.456C24.4325 7.784 23.5685 7.448 22.4805 7.448Z" fill="white"/>
<path d="M53.6016 23V5.48H56.7216L61.9056 17.168H62.2896L67.4496 5.48H70.5936V23H68.2416V8.48L63.4416 19.376H60.5616L55.7616 8.528V23H53.6016Z" fill="white"/>
<path d="M81.3677 23.432C79.9117 23.432 78.6717 23.192 77.6477 22.712C76.6237 22.232 75.8397 21.568 75.2957 20.72C74.7517 19.872 74.4797 18.912 74.4797 17.84H76.8317C76.8317 18.368 76.9677 18.896 77.2397 19.424C77.5277 19.952 77.9997 20.392 78.6557 20.744C79.3277 21.096 80.2317 21.272 81.3677 21.272C82.4237 21.272 83.2877 21.12 83.9597 20.816C84.6317 20.496 85.1277 20.088 85.4477 19.592C85.7677 19.08 85.9277 18.528 85.9277 17.936C85.9277 17.216 85.6157 16.624 84.9917 16.16C84.3677 15.68 83.4557 15.384 82.2557 15.272L80.3117 15.104C78.7597 14.976 77.5197 14.496 76.5917 13.664C75.6637 12.832 75.1997 11.736 75.1997 10.376C75.1997 9.304 75.4557 8.368 75.9677 7.568C76.4957 6.768 77.2237 6.144 78.1517 5.696C79.0797 5.232 80.1597 5 81.3917 5C82.6077 5 83.6797 5.224 84.6077 5.672C85.5357 6.12 86.2557 6.752 86.7677 7.568C87.2957 8.368 87.5597 9.328 87.5597 10.448H85.2077C85.2077 9.888 85.0717 9.36 84.7997 8.864C84.5437 8.368 84.1357 7.96 83.5757 7.64C83.0157 7.32 82.2877 7.16 81.3917 7.16C80.5277 7.16 79.8077 7.312 79.2317 7.616C78.6717 7.92 78.2477 8.32 77.9597 8.816C77.6877 9.296 77.5517 9.816 77.5517 10.376C77.5517 11.016 77.7997 11.584 78.2957 12.08C78.7917 12.576 79.5277 12.864 80.5037 12.944L82.4477 13.112C84.2397 13.272 85.6557 13.768 86.6957 14.6C87.7517 15.416 88.2797 16.528 88.2797 17.936C88.2797 19.008 87.9917 19.96 87.4157 20.792C86.8397 21.624 86.0317 22.272 84.9917 22.736C83.9517 23.2 82.7437 23.432 81.3677 23.432Z" fill="white"/>
<circle opacity="0.6" cx="41" cy="14" r="8" stroke="white" stroke-width="2"/>
</svg>
