<svg width="45" height="45" viewBox="0 0 45 45" fill="none" xmlns="http://www.w3.org/2000/svg">
<g clip-path="url(#clip0)">
<path d="M44.8476 21.3499L37.7908 10.9852C36.3151 8.81783 34.1245 7.19212 31.6226 6.40751C29.1205 5.62309 26.3939 5.70676 23.9448 6.64359L17.5013 9.10814C17.0479 9.28155 16.821 9.78956 16.9943 10.2429C17.1677 10.6962 17.6758 10.9229 18.1292 10.7499L24.5727 8.2853C28.8954 6.63225 33.7333 8.14907 36.3379 11.9745L40.6722 18.3405L32.8939 12.8621C31.2637 11.7139 29.1636 11.4126 27.2762 12.0564L3.87229 20.038C3.05772 20.3163 2.16229 19.8813 1.87664 19.0693C1.51102 18.0299 2.03071 16.9073 3.05983 16.5137L11.1128 13.4336C11.5662 13.2602 11.793 12.7522 11.6197 12.2988C11.4462 11.8454 10.938 11.6187 10.4849 11.7919L2.43185 14.8721C0.506773 15.6084 -0.46539 17.7082 0.218402 19.6525C0.822565 21.3702 2.71609 22.2896 4.43963 21.7016L27.8437 13.72C29.2003 13.2573 30.7099 13.4739 31.8819 14.2992L43.6153 22.5631C43.768 22.6707 43.945 22.7234 44.1211 22.7234C44.3454 22.7234 44.5683 22.6378 44.7378 22.4709C45.0403 22.1729 45.0867 21.701 44.8476 21.3499Z" fill="white"/>
<path d="M15.1469 10.5661C14.9834 10.4018 14.7566 10.3086 14.5256 10.3086C14.2944 10.3086 14.0676 10.4018 13.9042 10.5661C13.7408 10.7296 13.6467 10.9556 13.6467 11.1874C13.6467 11.4186 13.7408 11.6453 13.9042 11.8087C14.0677 11.9722 14.2945 12.0662 14.5256 12.0662C14.7567 12.0662 14.9835 11.9722 15.1469 11.8087C15.3103 11.6452 15.4044 11.4185 15.4044 11.1874C15.4044 10.9554 15.3103 10.7296 15.1469 10.5661Z" fill="white"/>
<path d="M37.9209 29.7686L37.8876 29.7583C36.8296 29.43 35.919 28.7722 35.2767 27.8835C35.9362 27.3521 36.572 26.7836 37.1793 26.1763C37.5225 25.8331 37.5225 25.2767 37.1793 24.9334C36.8362 24.5902 36.2797 24.5902 35.9365 24.9334C32.4897 28.3802 28.0871 30.5235 23.3264 31.1167C23.2945 31.1189 23.263 31.1226 23.2321 31.128C22.3659 31.2322 21.4882 31.2855 20.6023 31.2856C20.6019 31.2856 20.6014 31.2855 20.6009 31.2855C20.6004 31.2855 20.6 31.2856 20.5995 31.2856C19.7135 31.2856 18.8359 31.2322 17.9696 31.128C17.9387 31.1225 17.9073 31.1188 17.8753 31.1167C13.1146 30.5235 8.71197 28.3802 5.26523 24.9334C4.92202 24.5903 4.36558 24.5902 4.02237 24.9334C3.67915 25.2766 3.67915 25.833 4.02237 26.1763C4.62969 26.7836 5.2655 27.3522 5.92494 27.8835C5.28281 28.7722 4.37235 29.43 3.3152 29.758L3.28074 29.7686C2.81694 29.9119 2.55714 30.4039 2.7004 30.8677C2.81694 31.2451 3.16455 31.4874 3.53976 31.4874C3.62571 31.4874 3.71308 31.4746 3.79939 31.448L3.83498 31.437C5.25073 30.9977 6.47013 30.1197 7.33357 28.9342C7.63416 29.1413 7.93888 29.3412 8.24781 29.5334C7.81864 30.8801 6.81414 31.9682 5.4818 32.4968L5.20969 32.6047C4.75845 32.7836 4.53785 33.2944 4.71671 33.7456C4.85346 34.0905 5.18411 34.3006 5.53383 34.3006C5.64167 34.3006 5.75127 34.2806 5.85762 34.2385L6.12999 34.1304C7.83956 33.4522 9.15713 32.1025 9.80111 30.4186C10.1387 30.5942 10.4802 30.7612 10.8255 30.9198C10.7248 32.4269 9.8534 33.7721 8.50068 34.4779L8.44829 34.5052C8.01789 34.7296 7.8509 35.2604 8.07519 35.6908C8.2319 35.9914 8.53812 36.1635 8.85514 36.1635C8.99199 36.1635 9.13094 36.1315 9.26067 36.0638L9.31331 36.0364C11.0391 35.1359 12.2065 33.4946 12.5125 31.6154C12.8852 31.752 13.2614 31.8795 13.6412 31.997C13.5909 33.391 13.0504 34.716 12.104 35.7483C11.776 36.1061 11.8002 36.662 12.1581 36.9901C12.3268 37.1448 12.5395 37.221 12.7516 37.221C12.9894 37.221 13.2265 37.1251 13.3997 36.936C14.5386 35.6935 15.2257 34.1249 15.3731 32.461C15.8782 32.5754 16.3884 32.6723 16.9028 32.7533C16.7889 34.1034 16.3746 35.4163 15.6853 36.5893L15.567 36.7906C15.3212 37.2092 15.4612 37.7477 15.8797 37.9936C16.0196 38.0757 16.1728 38.1148 16.3241 38.1148C16.6256 38.1148 16.919 37.9595 17.0827 37.6808L17.2009 37.4796C18.0132 36.0973 18.5057 34.552 18.649 32.9619C19.0051 32.991 19.3629 33.012 19.722 33.0252V38.2466C19.722 38.732 20.1155 39.1255 20.6008 39.1255C21.0861 39.1255 21.4796 38.7319 21.4796 38.2466V33.0252C21.8388 33.012 22.1965 32.991 22.5526 32.9619C22.6959 34.5518 23.1883 36.0973 24.0006 37.4794L24.1189 37.6808C24.2826 37.9596 24.5761 38.1148 24.8775 38.1148C25.0287 38.1148 25.182 38.0757 25.3219 37.9936C25.7404 37.7477 25.8803 37.2092 25.6346 36.7906L25.5162 36.5891C24.827 35.4163 24.4127 34.1032 24.2988 32.7533C24.8132 32.6722 25.3234 32.5754 25.8285 32.461C25.9758 34.1248 26.663 35.6935 27.8019 36.936C27.9752 37.1251 28.2122 37.221 28.45 37.221C28.6622 37.221 28.8749 37.1447 29.0435 36.9901C29.4013 36.6621 29.4256 36.1061 29.0976 35.7483C28.1513 34.716 27.6107 33.3908 27.5604 31.997C27.9402 31.8795 28.3164 31.7521 28.6891 31.6154C28.9951 33.4947 30.1625 35.136 31.8885 36.0364L31.9409 36.0638C32.0707 36.1315 32.2096 36.1635 32.3465 36.1635C32.6636 36.1635 32.9697 35.9914 33.1264 35.6908C33.3508 35.2604 33.1838 34.7295 32.7533 34.5052L32.7012 34.478C31.3482 33.7722 30.4768 32.4269 30.3761 30.9198C30.7215 30.7612 31.063 30.5942 31.4005 30.4186C32.0444 32.1025 33.362 33.4522 35.0717 34.1305L35.344 34.2386C35.4503 34.2807 35.5599 34.3007 35.6678 34.3007C36.0175 34.3007 36.3481 34.0904 36.4849 33.7457C36.6638 33.2944 36.4431 32.7837 35.9919 32.6047L35.7198 32.4968C34.3874 31.9682 33.3828 30.88 32.9537 29.5333C33.2626 29.3411 33.5674 29.1412 33.8679 28.9341C34.7314 30.1197 35.9509 30.9977 37.3677 31.4373L37.4021 31.4479C37.4885 31.4746 37.5759 31.4873 37.6618 31.4873C38.0371 31.4873 38.3846 31.2449 38.5011 30.8676C38.6446 30.4039 38.3848 29.9119 37.9209 29.7686Z" fill="white"/>
</g>
<defs>
<clipPath id="clip0">
<rect width="45" height="45" fill="white"/>
</clipPath>
</defs>
</svg>
