<svg width="31" height="45" viewBox="0 0 31 45" fill="none" xmlns="http://www.w3.org/2000/svg">
<path d="M15.4999 0C7.46888 0 0.935059 6.53382 0.935059 14.5649C0.935059 21.7469 5.91669 31.1609 10.0958 37.7934C10.3654 38.2214 10.9307 38.3497 11.3588 38.08C11.7866 37.8105 11.915 37.245 11.6453 36.8172C4.30697 25.1702 2.76669 18.2877 2.76669 14.5649C2.76669 7.54373 8.47878 1.83148 15.5001 1.83148C22.5214 1.83148 28.2335 7.54357 28.2335 14.5649C28.2335 25.9671 14.91 43.3503 14.7754 43.5244C14.4664 43.9248 14.5401 44.4999 14.9404 44.8089C15.1071 44.9377 15.3041 45 15.4996 45C15.7734 45 16.0445 44.8776 16.2249 44.6441C16.7901 43.9127 30.0651 26.5922 30.0651 14.5647C30.0648 6.53382 23.5311 0 15.4999 0Z" fill="white"/>
<path d="M15.4999 9.92059C16.0055 9.92059 16.4156 9.5105 16.4156 9.00485C16.4156 8.49921 16.0055 8.08911 15.4999 8.08911C11.9291 8.08911 9.02405 10.9941 9.02405 14.5649C9.02405 18.1357 11.9291 21.0408 15.4999 21.0408C19.0706 21.0408 21.9757 18.1357 21.9757 14.5649C21.9757 13.1388 21.521 11.786 20.6605 10.6524C20.3548 10.2497 19.7803 10.171 19.3774 10.4768C18.9746 10.7825 18.8959 11.3569 19.2017 11.7599C19.8183 12.572 20.1442 13.542 20.1442 14.5649C20.1442 17.1258 18.0607 19.2093 15.4999 19.2093C12.939 19.2093 10.8555 17.1258 10.8555 14.5649C10.8555 12.0041 12.9391 9.92059 15.4999 9.92059Z" fill="white"/>
</svg>
