<svg width="35" height="45" viewBox="0 0 35 45" fill="none" xmlns="http://www.w3.org/2000/svg">
<path d="M31.1036 34.2693L30.1365 33.928V12.6365C30.1364 5.66868 24.4678 0 17.5 0C10.5323 0 4.86366 5.66868 4.86366 12.6364V21.2083C4.86366 26.4238 6.59836 30.2806 8.21687 32.7444L3.8966 34.2693C1.94657 34.9575 0.636475 36.8092 0.636475 38.8772V44.3408C0.636475 44.7049 0.931611 45 1.29565 45C1.6597 45 1.95483 44.7049 1.95483 44.3408V38.8772C1.95483 37.3672 2.91152 36.0151 4.33535 35.5126L11.4175 33.013C12.3298 34.617 13.8242 35.7884 15.6091 36.2868C15.9834 37.5902 16.8309 38.8891 16.9516 39.0701C17.0739 39.2534 17.2796 39.3637 17.5 39.3637C17.7205 39.3637 17.9263 39.2535 18.0485 39.0701C18.1692 38.8891 19.0171 37.5894 19.3914 36.2856C20.3675 36.0133 21.2619 35.5367 22.0296 34.8825C22.5125 36.0084 23.1209 37.0155 23.7203 38.0066C23.9194 38.3359 24.1165 38.662 24.3067 38.9892C23.7092 39.0241 23.1192 39.1877 22.5775 39.4766L17.8529 41.9963C17.6319 42.1142 17.3681 42.1142 17.1472 41.9963L12.4226 39.4766C11.1144 38.7789 9.57442 38.8178 8.30309 39.5806C7.03175 40.3434 6.27272 41.6839 6.27272 43.1665V44.3407C6.27272 44.7048 6.56786 44.9999 6.9319 44.9999C7.29595 44.9999 7.59108 44.7048 7.59108 44.3407V43.1665C7.59108 42.1513 8.11078 41.2334 8.98134 40.711C9.85181 40.1888 10.9063 40.1621 11.8022 40.6398L16.5267 43.1596C17.1362 43.4846 17.8639 43.4846 18.4733 43.1596L23.1978 40.6398C23.7755 40.3317 24.4061 40.2304 25.0321 40.3417C25.6025 41.532 25.9998 42.8047 25.9998 44.3407C25.9998 44.7048 26.2949 44.9999 26.659 44.9999C27.023 44.9999 27.3181 44.7048 27.3181 44.3407C27.3181 41.4083 26.0625 39.3322 24.8483 37.3244C23.5822 35.2309 22.3863 33.2534 22.3863 30.2499V29.5453C22.3863 29.1813 22.0912 28.8861 21.7271 28.8861C21.3631 28.8861 21.068 29.1813 21.068 29.5453V30.2499C21.068 31.4813 21.2484 32.5599 21.5404 33.5387C20.9689 34.1183 20.291 34.5622 19.5412 34.8497C19.3819 33.8666 18.5274 33.1135 17.5 33.1135C16.4735 33.1135 15.6196 33.8653 15.4592 34.847C14.2648 34.3838 13.2435 33.5154 12.5927 32.4062C13.4208 31.7588 13.9319 30.7543 13.9319 29.6651V27.4195C15.0384 27.8526 16.2418 28.0909 17.5 28.0909C22.4493 28.0909 26.5572 24.4064 27.2234 19.6364H27.6152C28.0469 19.6364 28.4578 19.5282 28.818 19.3387V44.3408C28.818 44.7049 29.1131 45 29.4772 45C29.8412 45 30.1363 44.7049 30.1363 44.3408V35.3261L30.6647 35.5126C32.0886 36.0151 33.0452 37.3672 33.0452 38.8772V44.3408C33.0452 44.7049 33.3403 45 33.7044 45C34.0684 45 34.3635 44.7049 34.3635 44.3408V38.8772C34.3637 36.8093 33.0535 34.9575 31.1036 34.2693ZM17.5 34.4319C17.9136 34.4319 18.2499 34.7683 18.2499 35.1817C18.2499 35.8116 17.8695 36.6999 17.5 37.4021C17.1306 36.6999 16.7502 35.8116 16.7502 35.1817C16.7502 34.7683 17.0865 34.4319 17.5 34.4319ZM28.7972 11.9589C28.5545 11.9706 28.3105 11.9772 28.0682 11.9772C24.7997 11.9772 21.7 10.9356 19.104 8.96502C16.74 7.17064 14.943 4.66822 13.9997 1.87304C15.1025 1.51356 16.2788 1.31836 17.5 1.31836C23.5133 1.31836 28.4456 6.03246 28.7972 11.9589ZM12.6136 29.6651C12.6136 30.5788 12.0347 31.3969 11.1732 31.701L9.50007 32.2915C7.93764 30.0041 6.18202 26.3008 6.18202 21.2083V19.3702C6.52005 19.5431 6.89754 19.6364 7.28426 19.6364H7.77627C8.20298 22.6942 10.0434 25.3055 12.6138 26.7864V29.6651H12.6136ZM28.8122 17.3319C28.7568 17.8849 28.2311 18.3182 27.6153 18.3181H27.318V18.2795C27.318 17.9155 27.023 17.6204 26.659 17.6203C26.659 17.6203 26.6589 17.6203 26.6588 17.6203C26.2949 17.6203 25.9999 17.9151 25.9996 18.2791C25.9962 22.9624 22.1833 26.7726 17.5 26.7726C12.8132 26.7726 9.00015 22.9596 9.00015 18.2728C9.00015 17.9088 8.70501 17.6136 8.34097 17.6136C7.97692 17.6136 7.68179 17.9088 7.68179 18.2728V18.3182H7.28417C6.9733 18.3182 6.67535 18.1859 6.46652 17.9551C6.25497 17.7213 6.15601 17.4176 6.18782 17.1C6.24328 16.547 6.76904 16.1138 7.38489 16.1138H7.63644C9.16538 16.1138 10.4093 14.8699 10.4093 13.3409V12.6364C10.4093 11.7272 10.8268 10.8922 11.5548 10.3453C11.8459 10.1266 11.9045 9.71332 11.6858 9.42231C11.4671 9.13131 11.0539 9.0726 10.7629 9.29127C9.70037 10.0896 9.09103 11.3089 9.09103 12.6364V13.3409C9.09103 14.1429 8.43853 14.7954 7.63652 14.7954H7.38498C7.38489 14.7954 7.38498 14.7954 7.38498 14.7954C6.95326 14.7954 6.54237 14.9036 6.18211 15.0931V12.6365C6.18211 9.14871 7.76827 6.02481 10.2566 3.94699C11.8228 7.41876 14.1391 10.3893 16.9909 12.5728C19.9732 14.8562 23.4068 16.1138 26.6592 16.1138H27.716C28.0269 16.1138 28.3248 16.2461 28.5337 16.4768C28.745 16.7106 28.844 17.0142 28.8122 17.3319ZM27.7159 14.7954H26.6591C23.6948 14.7954 20.5458 13.6343 17.7923 11.5261C15.0427 9.42082 12.8204 6.52975 11.343 3.14429C11.7977 2.84836 12.2748 2.58425 12.7712 2.35503C13.8039 5.37407 15.7511 8.07521 18.3069 10.0152C21.1341 12.1613 24.5095 13.2957 28.0682 13.2957C28.3175 13.2957 28.5682 13.2892 28.8182 13.2777V15.0616C28.4801 14.8888 28.1026 14.7954 27.7159 14.7954Z" fill="white"/>
<path d="M14.6027 13.1323C14.4876 12.787 14.1142 12.6003 13.7689 12.7154L11.6553 13.42C11.3099 13.5351 11.1233 13.9084 11.2383 14.2538C11.3304 14.5301 11.5876 14.7047 11.8636 14.7047C11.9327 14.7047 12.003 14.6937 12.0721 14.6707L14.1857 13.9661C14.5311 13.8511 14.7177 13.4778 14.6027 13.1323Z" fill="white"/>
<path d="M13.9319 16.8636V16.1589C13.9319 15.7949 13.6367 15.4998 13.2727 15.4998C12.9087 15.4998 12.6135 15.7949 12.6135 16.1589V16.8636C12.6135 17.2276 12.9087 17.5227 13.2727 17.5227C13.6367 17.5227 13.9319 17.2276 13.9319 16.8636Z" fill="white"/>
<path d="M21.7273 15.4998C21.3633 15.4998 21.0681 15.7949 21.0681 16.1589V16.8636C21.0681 17.2276 21.3633 17.5227 21.7273 17.5227C22.0913 17.5227 22.3865 17.2276 22.3865 16.8636V16.1589C22.3865 15.795 22.0913 15.4998 21.7273 15.4998Z" fill="white"/>
<path d="M20.6705 19.666H14.3296C13.9655 19.666 13.6704 19.9612 13.6704 20.3252C13.6704 22.2426 15.3884 23.8025 17.5001 23.8025C19.6117 23.8025 21.3297 22.2425 21.3297 20.3252C21.3297 19.9612 21.0346 19.666 20.6705 19.666ZM17.5001 22.4841C16.3826 22.4841 15.4332 21.8534 15.1085 20.9844H19.8917C19.5669 21.8535 18.6175 22.4841 17.5001 22.4841Z" fill="white"/>
</svg>
