<svg width="41" height="45" viewBox="0 0 41 45" fill="none" xmlns="http://www.w3.org/2000/svg">
<path d="M31.8972 27.203C33.5244 25.849 34.5623 23.8097 34.5623 21.5323V14.0622C34.5623 6.30826 28.2541 0 20.5001 0C12.7461 0 6.43784 6.30826 6.43784 14.0622V21.5323C6.43784 23.8097 7.47574 25.849 9.10295 27.203C4.27784 27.7073 0.503906 31.7985 0.503906 36.7549V44.1211C0.503906 44.6064 0.89748 45 1.38281 45H16.5448C17.0302 45 17.4237 44.6064 17.4237 44.1211C17.4237 43.6358 17.0302 43.2422 16.5448 43.2422H2.26163V36.7549C2.26163 32.4282 5.78156 28.9084 10.1082 28.9084H16.0622C16.3796 31.0733 18.2485 32.7408 20.5001 32.7408C22.7517 32.7408 24.6206 31.0732 24.9379 28.9084H30.892C35.2187 28.9084 38.7385 32.4283 38.7385 36.7549V43.2422H24.4554C23.9701 43.2422 23.5765 43.6358 23.5765 44.1211C23.5765 44.6064 23.9701 45 24.4554 45H39.6174C40.1028 45 40.4963 44.6064 40.4963 44.1211V36.7549C40.4963 31.7986 36.7223 27.7073 31.8972 27.203ZM14.1649 14.7028H15.683C17.1064 14.7028 18.4435 14.1052 19.3903 13.0908C20.399 14.0867 21.7835 14.7028 23.3095 14.7028H26.8351V17.8704C26.8351 21.3636 23.9932 24.2055 20.5 24.2055C17.0068 24.2055 14.1648 21.3636 14.1648 17.8704V14.7028H14.1649ZM20.5001 30.9831C18.9958 30.9831 17.772 29.7592 17.772 28.255V25.4897C18.6248 25.796 19.5432 25.9633 20.5001 25.9633C21.4569 25.9633 22.3754 25.796 23.2282 25.4897V28.255C23.2282 29.7592 22.0043 30.9831 20.5001 30.9831ZM24.986 27.1506V24.6028C27.159 23.1501 28.593 20.6747 28.593 17.8703V13.8238C28.593 13.3384 28.1995 12.9449 27.7141 12.9449H23.3096C21.2009 12.9449 19.4853 11.2293 19.4853 9.12059C19.4853 8.63517 19.0917 8.24168 18.6064 8.24168C18.1211 8.24168 17.7275 8.63517 17.7275 9.12059C17.7275 10.0226 17.9439 10.8745 18.3254 11.6293C17.7048 12.4502 16.7297 12.9449 15.6831 12.9449H13.286C12.8007 12.9449 12.4071 13.3384 12.4071 13.8238V17.8703C12.4071 20.6746 13.8411 23.1501 16.0141 24.6028V27.1506H13.8139C10.716 27.1506 8.19565 24.6302 8.19565 21.5323V14.0622C8.19565 7.27752 13.7154 1.75781 20.5001 1.75781C27.2847 1.75781 32.8045 7.27752 32.8045 14.0622V21.5323C32.8045 24.6302 30.2842 27.1506 27.1863 27.1506H24.986Z" fill="white"/>
</svg>
