<svg width="20" height="19" viewBox="0 0 20 19" fill="none" xmlns="http://www.w3.org/2000/svg">
<path d="M18.3333 13.5999V16.0999C18.3343 16.332 18.2867 16.5617 18.1937 16.7744C18.1008 16.987 17.9644 17.1779 17.7934 17.3348C17.6224 17.4917 17.4205 17.6112 17.2006 17.6855C16.9808 17.7599 16.7478 17.7875 16.5167 17.7666C13.9523 17.488 11.4892 16.6117 9.32498 15.2083C7.31151 13.9288 5.60443 12.2217 4.32499 10.2083C2.91663 8.03425 2.04019 5.55908 1.76665 2.98325C1.74583 2.75281 1.77321 2.52055 1.84707 2.30127C1.92092 2.08199 2.03963 1.88049 2.19562 1.7096C2.35162 1.53871 2.54149 1.40218 2.75314 1.30869C2.9648 1.2152 3.1936 1.1668 3.42499 1.16658H5.92499C6.32941 1.1626 6.72148 1.30582 7.02812 1.56953C7.33476 1.83324 7.53505 2.19946 7.59165 2.59992C7.69717 3.39997 7.89286 4.18552 8.17499 4.94158C8.2871 5.23985 8.31137 5.56401 8.24491 5.87565C8.17844 6.18729 8.02404 6.47334 7.79998 6.69992L6.74165 7.75825C7.92795 9.84454 9.65536 11.572 11.7417 12.7583L12.8 11.6999C13.0266 11.4759 13.3126 11.3215 13.6243 11.255C13.9359 11.1885 14.26 11.2128 14.5583 11.3249C15.3144 11.607 16.0999 11.8027 16.9 11.9083C17.3048 11.9654 17.6745 12.1693 17.9388 12.4812C18.203 12.7931 18.3435 13.1912 18.3333 13.5999Z" stroke="white" stroke-width="2" stroke-linecap="round" stroke-linejoin="round"/>
</svg>
