<svg width="117" height="117" viewBox="0 0 117 117" fill="none" xmlns="http://www.w3.org/2000/svg">
<g opacity="0.1">
<path d="M10.1205 91.3989C10.8312 92.4421 12.2526 92.7115 13.2957 92.0008C14.3389 91.2902 14.6083 89.8686 13.8976 88.8256C7.79558 79.869 4.57031 69.3826 4.57031 58.5C4.57031 28.763 28.763 4.57031 58.5 4.57031C88.237 4.57031 112.43 28.763 112.43 58.5C112.43 88.237 88.237 112.43 58.5 112.43C47.3797 112.43 36.7037 109.073 27.6262 102.724C26.5919 102 25.1673 102.252 24.4439 103.287C23.7204 104.321 23.9724 105.745 25.0065 106.469C34.8559 113.358 46.4378 117 58.5 117C74.1259 117 88.8165 110.915 99.8657 99.8657C110.915 88.8165 117 74.1259 117 58.5C117 42.8741 110.915 28.1835 99.8657 17.1341C88.8165 6.08514 74.1259 0 58.5 0C42.8741 0 28.1835 6.08514 17.1343 17.1341C6.08491 28.1835 0 42.8741 0 58.5C0 70.3042 3.49972 81.6804 10.1205 91.3989Z" fill="#8AAEE5"/>
<path d="M71.3049 58.2664H78.2401C77.5943 69.3346 72.1931 71.162 68.0678 71.5375C66.8907 71.6446 65.9896 72.6314 65.9896 73.8132V86.6076C65.9896 87.2358 66.2483 87.8366 66.7049 88.2682C67.1615 88.6999 67.7764 88.9236 68.403 88.8891C77.5621 88.3738 84.5728 85.1986 89.2402 79.4516C93.8242 73.8073 96.1484 65.6148 96.1484 55.1015V35.8854C96.1484 31.5966 92.6592 28.1074 88.3705 28.1074H71.3047C67.0159 28.1074 63.5267 31.5966 63.5269 35.8856V50.4884C63.5269 54.7772 67.0161 58.2664 71.3049 58.2664ZM68.097 35.8854C68.097 34.1166 69.536 32.6777 71.3047 32.6777H88.3705C90.1392 32.6777 91.5781 34.1166 91.5781 35.8854V55.1015C91.5781 64.5385 89.5978 71.7616 85.6925 76.5703C82.2211 80.8444 77.2555 83.3254 70.5597 84.1175V75.7837C76.59 74.5404 82.8742 69.9029 82.8742 55.981C82.8742 54.7192 81.8511 53.6959 80.589 53.6959H71.3047C69.536 53.6959 68.097 52.2569 68.097 50.4882V35.8854Z" fill="#8AAEE5"/>
<path d="M28.6289 58.2659H35.5641C34.9183 69.3338 29.5171 71.1615 25.3917 71.537C24.2147 71.6441 23.3136 72.6309 23.3136 73.8128V86.6071C23.3136 87.2353 23.5723 87.8361 24.0289 88.2677C24.4855 88.6994 25.1004 88.9231 25.727 88.8886C34.8863 88.3733 41.897 85.1981 46.5644 79.4512C51.1482 73.8068 53.4724 65.6143 53.4724 55.101V54.3101C53.4724 53.0482 52.4494 52.0249 51.1873 52.0249C49.9252 52.0249 48.9021 53.0482 48.9021 54.3101V55.101C48.9021 64.538 46.922 71.7611 43.0167 76.5698C39.5453 80.844 34.5799 83.3249 27.8839 84.117V75.7835C33.9142 74.5399 40.1984 69.9026 40.1984 55.9808C40.1984 54.7189 39.1754 53.6956 37.9133 53.6956H28.6289C26.8602 53.6956 25.4212 52.2567 25.4212 50.4879V35.8851C25.4212 34.1164 26.8602 32.6774 28.6289 32.6774H45.6947C47.4634 32.6774 48.9023 34.1164 48.9023 35.8851V37.1335C48.9023 38.3954 49.9254 39.4186 51.1875 39.4186C52.4496 39.4186 53.4727 38.3954 53.4727 37.1335V35.8851C53.4727 31.5963 49.9835 28.1071 45.6947 28.1071H28.6289C24.3401 28.1071 20.8509 31.5963 20.8509 35.8851V50.4879C20.8509 54.7767 24.3401 58.2659 28.6289 58.2659Z" fill="#8AAEE5"/>
</g>
</svg>
