<svg width="80" height="80" viewBox="0 0 80 80" fill="none" xmlns="http://www.w3.org/2000/svg">
<g opacity="0.3">
<path d="M71.1156 23.3621C70.9164 23.3622 70.7209 23.3072 70.551 23.2033C70.381 23.0993 70.243 22.9504 70.1524 22.7729C69.6843 21.8572 69.1448 20.9156 68.5016 19.894C68.426 19.7738 68.3749 19.6398 68.3512 19.4998C68.3274 19.3598 68.3315 19.2165 68.3631 19.0781C68.3947 18.9396 68.4533 18.8088 68.5355 18.693C68.6177 18.5772 68.7219 18.4787 68.8421 18.4032C68.9624 18.3277 69.0963 18.2766 69.2363 18.2528C69.3763 18.229 69.5196 18.2331 69.658 18.2647C69.7965 18.2963 69.9273 18.3549 70.0431 18.4371C70.1589 18.5193 70.2574 18.6235 70.3329 18.7437C71.0097 19.8194 71.5805 20.8151 72.0778 21.7891C72.208 22.0445 72.2316 22.3411 72.1432 22.6137C72.0548 22.8864 71.8617 23.1128 71.6064 23.2432C71.4547 23.3216 71.2864 23.3624 71.1156 23.3621Z" fill="white"/>
<path d="M74.9407 39.6435H5.0596C4.77288 39.6435 4.4979 39.5296 4.29516 39.3268C4.09241 39.1241 3.97852 38.8491 3.97852 38.5624V38.184C3.97869 32.021 5.56008 25.9611 8.57143 20.5838C11.5828 15.2066 15.9234 10.6919 21.1781 7.47147C26.4328 4.25107 32.4259 2.43269 38.5841 2.19024C44.7424 1.9478 50.8599 3.28939 56.3515 6.08672C56.4822 6.14873 56.5991 6.23634 56.6953 6.34436C56.7915 6.45238 56.8651 6.57861 56.9117 6.71558C56.9582 6.85255 56.9768 6.99746 56.9663 7.14175C56.9558 7.28603 56.9165 7.42674 56.8507 7.55554C56.7848 7.68435 56.6938 7.79863 56.583 7.89161C56.4721 7.98459 56.3438 8.05439 56.2055 8.09686C56.0672 8.13934 55.9218 8.15363 55.7779 8.13889C55.634 8.12415 55.4945 8.08067 55.3677 8.01104C50.2584 5.41102 44.5728 4.15051 38.8434 4.3476C33.1141 4.54469 27.5285 6.19292 22.61 9.13789C17.6915 12.0829 13.601 16.2282 10.7218 21.1855C7.84266 26.1428 6.26899 31.7498 6.14824 37.4813H73.852C73.8085 35.2075 73.5339 32.9439 73.0326 30.7256C72.9692 30.4459 73.0195 30.1525 73.1725 29.9099C73.3255 29.6674 73.5686 29.4955 73.8482 29.4321C74.1279 29.3688 74.4213 29.4191 74.6639 29.5721C74.9065 29.725 75.0784 29.9681 75.1418 30.2478C75.7287 32.8523 76.0239 35.5141 76.0218 38.184V38.5624C76.0218 38.8491 75.9079 39.1241 75.7051 39.3268C75.5024 39.5296 75.2274 39.6435 74.9407 39.6435Z" fill="white"/>
<path d="M64.5624 14.4216C64.2791 14.421 64.0074 14.3092 63.8057 14.1103C63.0867 13.4011 62.3235 12.7135 61.5408 12.0659C61.3197 11.8832 61.1803 11.62 61.1533 11.3345C61.1262 11.0489 61.2137 10.7643 61.3965 10.5432C61.5793 10.3222 61.8424 10.1828 62.1279 10.1557C62.4135 10.1286 62.6981 10.2161 62.9192 10.3989C63.7527 11.0865 64.5613 11.8173 65.3257 12.5708C65.4782 12.7212 65.5826 12.9136 65.6256 13.1235C65.6686 13.3334 65.6483 13.5514 65.5672 13.7497C65.4861 13.948 65.3479 14.1178 65.1702 14.2374C64.9924 14.357 64.7832 14.4211 64.5689 14.4216H64.5624Z" fill="white"/>
<path d="M55.0596 39.6464H24.9385C24.6518 39.6464 24.3768 39.5325 24.1741 39.3298C23.9713 39.1271 23.8574 38.8521 23.8574 38.5654V38.1827C23.8574 17.9848 30.9482 2.16211 39.999 2.16211C49.0499 2.16211 56.1407 17.9848 56.1407 38.1827V38.5654C56.1407 38.8521 56.0268 39.1271 55.824 39.3298C55.6213 39.5325 55.3463 39.6464 55.0596 39.6464ZM26.0228 37.4843H53.9753C53.8153 19.4378 47.4801 4.32427 39.999 4.32427C32.518 4.32427 26.1828 19.4378 26.0228 37.4843Z" fill="white"/>
<path d="M33.5386 77.8376C31.5392 77.8354 29.6224 77.04 28.2088 75.6262C26.7951 74.2123 26 72.2954 25.998 70.296V69.2625C25.998 68.9758 26.1119 68.7008 26.3147 68.4981C26.5174 68.2953 26.7924 68.1814 27.0791 68.1814C27.3658 68.1814 27.6408 68.2953 27.8436 68.4981C28.0463 68.7008 28.1602 68.9758 28.1602 69.2625V70.296C28.1602 71.0023 28.2993 71.7017 28.5696 72.3542C28.8399 73.0068 29.2361 73.5997 29.7355 74.0991C30.2349 74.5985 30.8278 74.9947 31.4804 75.265C32.1329 75.5353 32.8323 75.6744 33.5386 75.6744C34.2449 75.6744 34.9443 75.5353 35.5968 75.265C36.2493 74.9947 36.8423 74.5985 37.3417 74.0991C37.8411 73.5997 38.2373 73.0068 38.5076 72.3542C38.7779 71.7017 38.917 71.0023 38.917 70.296V38.5652C38.917 38.2785 39.0309 38.0035 39.2336 37.8008C39.4364 37.598 39.7113 37.4841 39.9981 37.4841C40.2848 37.4841 40.5598 37.598 40.7625 37.8008C40.9652 38.0035 41.0791 38.2785 41.0791 38.5652V70.296C41.0771 72.2954 40.2821 74.2123 38.8684 75.6262C37.4548 77.04 35.538 77.8354 33.5386 77.8376Z" fill="white"/>
<path d="M59.3664 70.6271C59.1273 70.6269 58.895 70.5475 58.7059 70.4012C58.2734 70.0693 48.1988 62.2098 48.1988 55.6293C48.1591 53.7271 48.875 51.8866 50.1897 50.5113C51.5045 49.136 53.3108 48.3379 55.2129 48.292C56.7175 48.2917 58.1792 48.7935 59.3664 49.7179C60.5535 48.7935 62.0153 48.2917 63.5199 48.292C65.422 48.3379 67.2283 49.136 68.543 50.5113C69.8578 51.8866 70.5737 53.7271 70.534 55.6293C70.534 62.2109 60.4561 70.0693 60.0269 70.4012C59.8378 70.5475 59.6055 70.6269 59.3664 70.6271ZM55.2129 50.4542C53.8843 50.5002 52.628 51.0704 51.7187 52.0403C50.8095 53.0101 50.3213 54.3005 50.361 55.6293C50.361 59.8736 56.3469 65.6758 59.3664 68.1612C62.3869 65.6747 68.3718 59.8736 68.3718 55.6293C68.4115 54.3005 67.9233 53.0101 67.014 52.0403C66.1048 51.0704 64.8485 50.5002 63.5199 50.4542C62.8875 50.457 62.2622 50.588 61.6819 50.8394C61.1016 51.0909 60.5783 51.4574 60.1437 51.9169C59.936 52.1201 59.657 52.2339 59.3664 52.2339C59.0758 52.2339 58.7968 52.1201 58.5891 51.9169C58.1546 51.4573 57.6313 51.0908 57.051 50.8394C56.4706 50.5879 55.8453 50.4569 55.2129 50.4542Z" fill="white"/>
<path d="M20.1794 64.8648C19.9403 64.8654 19.7079 64.7863 19.5188 64.6399C19.1631 64.3653 10.8118 57.8507 10.8118 52.3502C10.7793 50.7363 11.3879 49.1753 12.5043 48.0093C13.6206 46.8433 15.1537 46.1674 16.7675 46.1296C17.9954 46.1296 19.1912 46.5228 20.1794 47.2518C21.1676 46.5228 22.3633 46.1296 23.5912 46.1296C25.205 46.1674 26.7381 46.8433 27.8544 48.0093C28.9708 49.1753 29.5794 50.7363 29.5469 52.3502C29.5469 57.8507 21.1956 64.3653 20.8399 64.6399C20.6509 64.7863 20.4184 64.8654 20.1794 64.8648ZM16.7675 48.2918C15.7271 48.3293 14.7439 48.7773 14.0329 49.5379C13.322 50.2985 12.9413 51.3096 12.9739 52.3502C12.9739 55.7091 17.6853 60.3221 20.1794 62.3967C22.6734 60.3221 27.3848 55.7091 27.3848 52.3502C27.4174 51.3096 27.0367 50.2985 26.3258 49.5379C25.6149 48.7773 24.6316 48.3293 23.5912 48.2918C23.0975 48.2942 22.6095 48.3968 22.1566 48.5934C21.7037 48.79 21.2955 49.0765 20.9567 49.4356C20.7484 49.6378 20.4696 49.7509 20.1794 49.7509C19.8891 49.7509 19.6103 49.6378 19.4021 49.4356C19.0632 49.0765 18.655 48.79 18.2021 48.5934C17.7492 48.3968 17.2612 48.2942 16.7675 48.2918Z" fill="white"/>
</g>
</svg>
